<svg xmlns="http://www.w3.org/2000/svg" xmlns:xlink="http://www.w3.org/1999/xlink" width="23px" height="19px" viewBox="0 0 23 19" version="1.1">
    <!-- Generator: Sketch 39.1 (31720) - http://www.bohemiancoding.com/sketch -->
    <title>weixin</title>
    <desc>Created with Sketch.</desc>
    <defs/>
    <g id="Page-1" stroke="none" stroke-width="1" fill="none" fill-rule="evenodd">
        <g id="Desktop-HD" transform="translate(-419.000000, -67.000000)" fill="#666666">
            <g id="Group-6-Copy" transform="translate(419.000000, 67.000000)">
                <path d="M15.5,5.7 L16.3,5.7 C15.6,2.4 12.1,0 8.1,0 C3.6,0 0,3 0,6.9 C0,9.1 1.2,11 3.3,12.4 L2.5,14.8 L5.3,13.4 C6.3,13.6 7.1,13.8 8.1,13.8 L8.9,13.8 C8.7,13.3 8.6,12.7 8.6,12.1 C8.5,8.6 11.6,5.7 15.5,5.7 L15.5,5.7 Z M11.1,3.5 C11.7,3.5 12.1,3.9 12.1,4.5 C12.1,5.1 11.7,5.5 11.1,5.5 C10.5,5.5 9.9,5.1 9.9,4.5 C9.9,3.9 10.5,3.5 11.1,3.5 L11.1,3.5 Z M5.4,5.5 C4.8,5.5 4.2,5.1 4.2,4.5 C4.2,3.9 4.8,3.5 5.4,3.5 C6,3.5 6.4,3.9 6.4,4.5 C6.4,5.1 6,5.5 5.4,5.5 L5.4,5.5 Z" id="XMLID_233_"/>
                <path d="M22.8,11.9 C22.8,8.7 19.5,6 15.9,6 C12,6 9,8.6 9,11.9 C9,15.2 12,17.8 15.9,17.8 C16.7,17.8 17.5,17.6 18.3,17.4 L20.5,18.6 L19.9,16.6 C21.6,15.4 22.8,13.8 22.8,11.9 L22.8,11.9 Z M13.6,10.9 C13.2,10.9 12.8,10.5 12.8,10.1 C12.8,9.7 13.2,9.3 13.6,9.3 C14.2,9.3 14.6,9.7 14.6,10.1 C14.6,10.5 14.2,10.9 13.6,10.9 L13.6,10.9 Z M18.1,10.9 C17.7,10.9 17.3,10.5 17.3,10.1 C17.3,9.7 17.7,9.3 18.1,9.3 C18.7,9.3 19.1,9.7 19.1,10.1 C19.1,10.5 18.7,10.9 18.1,10.9 L18.1,10.9 Z" id="XMLID_221_"/>
            </g>
        </g>
    </g>
</svg>