<svg xmlns="http://www.w3.org/2000/svg" xmlns:xlink="http://www.w3.org/1999/xlink" width="21px" height="17px" viewBox="0 0 21 17" version="1.1">
    <!-- Generator: Sketch 39.1 (31720) - http://www.bohemiancoding.com/sketch -->
    <title>微博hover</title>
    <desc>Created with Sketch.</desc>
    <defs/>
    <g id="Page-1" stroke="none" stroke-width="1" fill="none" fill-rule="evenodd">
        <g id="Desktop-HD" transform="translate(-456.000000, -67.000000)" fill="#E90E24">
            <g id="Group-7" transform="translate(456.000000, 67.000000)">
                <path d="M16.8287308,0.10118229 C16.1249162,-0.0607093737 15.1801987,-0.0283310411 13.9964676,0.198317288 C13.9804074,0.198317288 13.9643472,0.205935719 13.9473423,0.222124885 L13.9237244,0.270692384 L13.9001064,0.294499982 C13.724389,0.343067481 13.5798472,0.444011694 13.4674258,0.597332622 C13.3559491,0.750653551 13.2992661,0.916354429 13.2992661,1.09348296 C13.2992661,1.33536815 13.3795671,1.53725657 13.540169,1.69819593 C13.6998263,1.85913529 13.8925487,1.94008112 14.1164467,1.94103343 L14.1882453,1.94103343 C14.2043055,1.94103343 14.2402047,1.93246269 14.2968878,1.91627353 C14.3526261,1.90103666 14.413088,1.88865671 14.4763841,1.88008598 C14.5396802,1.87246755 14.6076999,1.85532608 14.6804431,1.83151848 C14.7531864,1.80771088 14.8174271,1.78295098 14.8722208,1.75914338 C14.9279591,1.73438348 15.0356569,1.72200353 15.1962589,1.72200353 C15.3578056,1.72200353 15.5533621,1.73438348 15.7848179,1.75914338 C16.0162737,1.78295098 16.2722922,1.84389843 16.5528733,1.94008112 C16.8334544,2.03626382 17.1140355,2.15720641 17.3936719,2.30290891 C17.6723635,2.44861141 17.9529447,2.65049983 18.2335258,2.90762189 C18.5141069,3.16569625 18.757844,3.46376737 18.9656819,3.80278756 C19.3813576,4.75413915 19.4616586,5.67406472 19.2056401,6.56161196 C19.2056401,6.57684882 19.2018612,6.59303799 19.1933588,6.61017946 C19.185801,6.62636862 19.1735197,6.66636539 19.1574595,6.73112205 C19.1413993,6.79492641 19.1253391,6.85492156 19.1092789,6.91205979 C19.092274,6.96919803 19.0762138,7.04157313 19.0610983,7.12918508 C19.0450381,7.21774935 19.0365357,7.29488596 19.0365357,7.35964263 C19.0365357,7.50439282 19.0771585,7.62533542 19.1565148,7.72247041 C19.2368158,7.81960541 19.3369558,7.88817129 19.456935,7.92816806 C19.5769141,7.96911713 19.717677,7.98911551 19.8773343,7.98911551 C20.3251304,7.98911551 20.5887066,7.71485198 20.6690076,7.16537263 C20.8607852,6.53685206 20.9694278,5.9359483 20.9930457,5.36361365 C21.0176083,4.79127901 20.9769855,4.28751024 20.8730666,3.85135505 C20.7691476,3.41615217 20.6132692,3.0085661 20.4054314,2.62954915 C20.1975935,2.2505322 19.9576353,1.92865348 19.6855566,1.66200838 C19.4125333,1.39536329 19.1083342,1.1534781 18.7729595,0.935400507 C18.43664,0.718275218 18.1126019,0.544955908 17.8008451,0.415442577 C17.4881436,0.28688155 17.1641055,0.182128121 16.8277861,0.10118229 L16.8287308,0.10118229 Z M17.2368488,6.92348744 C17.3332099,6.92348744 17.4210687,6.89967984 17.500425,6.85111234 C17.5807259,6.80254485 17.6449667,6.7415974 17.6931473,6.6692223 C17.7413279,6.59779951 17.7725036,6.52066289 17.7885638,6.43971706 C17.804624,6.42352789 17.8121817,6.3997203 17.8121817,6.36734196 C18.0049041,4.52749082 17.3643856,3.47900423 15.8925157,3.22092987 C15.4607798,3.14093634 15.0602196,3.13236561 14.6917797,3.19712227 C14.580303,3.19712227 14.4839419,3.22569139 14.4036409,3.28187732 C14.3242846,3.33806325 14.2562649,3.41043835 14.1995819,3.49900261 C14.1438435,3.58851918 14.115502,3.68089266 14.1164467,3.77707535 C14.1164467,3.93896701 14.1721851,4.07609878 14.2846065,4.18847064 C14.3960831,4.3008425 14.5321224,4.35702843 14.6917797,4.35798073 C15.9406963,4.06752804 16.6123905,4.47035259 16.7078069,5.56835899 C16.7408721,5.84167021 16.7238671,6.09974457 16.6596263,6.34258206 C16.6596263,6.50352142 16.7163094,6.64065318 16.8277861,6.75302504 C16.9402075,6.8653969 17.0762468,6.92253514 17.235904,6.92253514 L17.2368488,6.92348744 Z M8.71549657,11.9811735 C8.6040199,12.061167 8.48781964,12.0973545 8.36784051,12.0897361 C8.24786139,12.0821177 8.16378153,12.029741 8.11560093,11.932606 L8.06742034,11.8364233 C8.05136014,11.8030926 8.0438024,11.7707143 8.0438024,11.7392883 L8.0438024,11.6421533 C8.0438024,11.5935858 8.05136014,11.553589 8.06742034,11.5212107 L8.11560093,11.425028 C8.13166113,11.3926497 8.15622378,11.3678898 8.18834418,11.3517006 L8.26014271,11.2555179 C8.3886243,11.1583829 8.5123823,11.1183861 8.63236142,11.1345753 C8.75234055,11.1507645 8.83547569,11.2155211 8.88365629,11.327893 C8.93183688,11.3926497 8.95167595,11.4650247 8.94411821,11.5459706 C8.93561575,11.6259641 8.91199782,11.7031007 8.87137496,11.7754758 C8.83169682,11.8478509 8.77973736,11.9173691 8.71549657,11.9811735 L8.71549657,11.9811735 Z M6.6758514,13.7229373 C6.57949021,13.7391265 6.48785261,13.7429357 6.39999388,13.7353173 C6.31213515,13.7276988 6.23277888,13.7115097 6.16003563,13.6867498 C6.08729238,13.6619899 6.01549384,13.6334207 5.94369531,13.6019947 C5.8728415,13.5705687 5.81332429,13.5258104 5.76419898,13.4686722 C5.71601838,13.4115339 5.67161666,13.355348 5.63193852,13.2991621 C5.59226039,13.2439284 5.56108471,13.1791718 5.53652205,13.1058444 C5.5119594,13.032517 5.49967807,12.9553804 5.49967807,12.8753868 C5.49967807,12.6982583 5.54785866,12.524939 5.64421985,12.3554289 C5.74058104,12.1859188 5.8728415,12.0411686 6.04100122,11.9192737 C6.20821622,11.7983311 6.39621501,11.7297652 6.60405287,11.7135761 C6.74859465,11.6973869 6.88841285,11.7021484 7.02445217,11.725956 C7.1604915,11.7507159 7.27669176,11.7907127 7.37210823,11.8468986 C7.46846942,11.9030845 7.55254928,11.9678412 7.62434781,12.0402163 C7.69709106,12.1135437 7.74905053,12.1973464 7.7802262,12.2944814 C7.8123466,12.3906641 7.8284068,12.4954176 7.8284068,12.6087417 C7.8284068,12.7858703 7.77644733,12.9553804 7.67252841,13.1163197 C7.56860948,13.2772591 7.42879128,13.4143908 7.25307382,13.527715 C7.07641164,13.6410392 6.88463398,13.7048435 6.67679612,13.7210327 L6.6758514,13.7229373 Z M7.54026795,9.14902166 C7.07641164,9.19758916 6.6597912,9.30710411 6.29229608,9.4766142 C5.92385624,9.64517199 5.63571739,9.83944199 5.42787954,10.0565673 C5.22004168,10.2746449 5.04432421,10.5089116 4.89978243,10.7584153 C4.75524065,11.0079189 4.65510059,11.2536133 4.59936225,11.4964508 C4.54362392,11.738336 4.50677994,11.9602228 4.49071974,12.1611589 C4.47465954,12.362095 4.46615708,12.5192252 4.4671018,12.6325493 L4.49071974,12.825867 L4.49071974,12.923002 C4.49071974,12.9715695 4.50677994,13.0687045 4.53890033,13.2134547 C4.57102073,13.3582049 4.61542245,13.4915275 4.67116079,13.61247 C4.72689912,13.7343649 4.81948144,13.8676875 4.94701831,14.0124377 C5.07549989,14.1571879 5.22759942,14.2781305 5.40331688,14.3752655 C6.45951109,14.8914142 7.44390676,15.0485443 8.35555919,14.8466559 C9.26721161,14.6447675 10.0031466,14.1809955 10.5633641,13.4553399 C10.7882068,13.1820287 10.9355828,12.8430085 11.0073813,12.4392316 C11.0791798,12.0354548 11.0631196,11.6278687 10.9592007,11.2174257 C10.8552818,10.8069828 10.6757855,10.431775 10.419767,10.0927548 C10.1637486,9.75373464 9.78302739,9.49089876 9.27949294,9.3061518 C8.77595849,9.12045254 8.19590192,9.06807583 7.53932323,9.14902166 L7.54026795,9.14902166 Z M8.23558006,15.8522888 C6.50769168,15.9322824 5.03960063,15.5932622 3.83225161,14.8352283 C2.62395788,14.0771944 2.02028338,13.117272 2.02028338,11.9564136 C2.02028338,10.810792 2.62017901,9.82325282 3.81997029,8.99189152 C5.02070628,8.16148251 6.4925762,7.70628125 8.23652478,7.62533542 C9.98047335,7.54438959 11.4523433,7.83388997 12.6530793,8.49574118 C13.8528705,9.15759239 14.4527662,10.0613288 14.4527662,11.2059981 C14.4527662,12.3668565 13.8405892,13.4115339 12.61718,14.3390779 C11.3928261,15.2666219 9.93229276,15.7703907 8.23652478,15.8513365 L8.23558006,15.8522888 Z M15.5561963,8.32718339 C15.316238,8.27861589 15.1603596,8.2062408 15.0885611,8.1100581 C15.0167625,8.01292311 15.0044812,7.92435884 15.0526618,7.84341301 L15.1244603,7.72247041 C15.1405205,7.70628125 15.1565807,7.68247365 15.1726409,7.65009532 C15.1896459,7.61771699 15.2208215,7.5481988 15.2690021,7.44344537 C15.316238,7.33869194 15.3521373,7.23393851 15.3766999,7.12918508 C15.4012626,7.02443166 15.4220464,6.89587063 15.4371619,6.7425497 C15.4522773,6.58922877 15.4484985,6.44352627 15.4248805,6.30639451 C15.4012626,6.16926275 15.353082,6.01975104 15.2803387,5.85881168 C15.2075955,5.69787232 15.1074554,5.55312213 14.9799186,5.4236088 C14.7560205,5.19696047 14.4641028,5.05221027 14.1032207,4.98745361 C13.7432833,4.92269694 13.3833459,4.91888773 13.0234085,4.97507366 C12.6634712,5.03125959 12.3233728,5.10363469 12.0040583,5.19219895 C11.6837991,5.28076321 11.4202229,5.36551826 11.212385,5.44646409 L10.8996835,5.59216659 C10.7400263,5.64073409 10.6077658,5.67311242 10.5038469,5.68834928 C10.3999279,5.70453845 10.3196269,5.70072923 10.2638886,5.67596933 C10.2072056,5.65216173 10.1628038,5.62835414 10.1316282,5.60359423 C10.0995078,5.57978664 10.0872264,5.5226484 10.0947842,5.43408414 C10.1032866,5.34551988 10.1108444,5.26838326 10.1193468,5.2045789 C10.1269046,5.13982223 10.1467436,5.03887802 10.178864,4.90174626 C10.2109844,4.76366219 10.2346024,4.65509955 10.2506626,4.57510602 C10.2506626,4.38083602 10.239326,4.19989828 10.2147633,4.03038819 C10.1911454,3.86087809 10.1391859,3.67136962 10.0588849,3.46186276 C9.97952863,3.2523559 9.86332838,3.08379811 9.71122885,2.95428478 C9.55912933,2.82572375 9.36735167,2.72097032 9.13495115,2.64002449 C8.90349536,2.55907866 8.60307518,2.53527106 8.23463534,2.5676494 C7.86714022,2.59907542 7.45051978,2.69621042 6.98666347,2.85714978 C6.42644597,3.05141978 5.85867073,3.33711095 5.28239303,3.7161279 C4.70611534,4.09514485 4.20635976,4.49035097 3.78218158,4.90174626 C3.35894813,5.31314154 2.97066922,5.71215688 2.61828958,6.09879226 C2.26590994,6.48637995 1.99383128,6.80064024 1.80205362,7.04252543 L1.53753271,7.43011312 C1.00943561,8.12339036 0.617377832,8.8176199 0.361359379,9.51089714 C0.105340926,10.2051267 -0.0146382014,10.7288938 0.00142199671,11.0831509 L0.00142199671,11.5916812 C0.0977831856,12.3659042 0.33396257,13.0591815 0.70996015,13.6724652 C1.08501301,14.2857489 1.53375384,14.7818992 2.05334849,15.1609162 C2.57388785,15.5389808 3.18606482,15.8618119 3.88987938,16.128457 C4.59369395,16.395102 5.27011171,16.5884197 5.91818794,16.7093623 C6.56720889,16.8303049 7.25118438,16.9141077 7.97105915,16.9626752 C9.15479022,17.0598102 10.382923,16.9674367 11.6554575,16.6846024 C12.9270474,16.4027205 14.1107784,15.9151409 15.2075955,15.2209113 C16.3034678,14.5276341 17.0753021,13.6962728 17.5240429,12.728732 C17.7951768,12.1640158 17.9359397,11.6316779 17.9434975,11.1317184 C17.9519999,10.6317588 17.8679201,10.2241728 17.6922026,9.90991248 C17.5155404,9.59565219 17.2878635,9.31757945 17.0072824,9.07569426 C16.727646,8.83285676 16.4640698,8.65572824 16.2156091,8.54240407 C15.9680931,8.43003221 15.7479739,8.35670481 15.5561963,8.32527878 L15.5561963,8.32718339 Z" id="Fill-1"/>
            </g>
        </g>
    </g>
</svg>