<svg xmlns="http://www.w3.org/2000/svg" xmlns:xlink="http://www.w3.org/1999/xlink" width="14px" height="23px" viewBox="0 0 14 23" version="1.1">
    <!-- Generator: Sketch 39.1 (31720) - http://www.bohemiancoding.com/sketch -->
    <title>Group 4</title>
    <desc>Created with Sketch.</desc>
    <defs/>
    <g id="Page-1" stroke="none" stroke-width="1" fill="none" fill-rule="evenodd">
        <g id="Desktop-HD" transform="translate(-321.000000, -64.000000)" fill="#666666">
            <g id="Group-4" transform="translate(321.000000, 64.000000)">
                <path d="M12.9552239,18.7164179 L1.04477612,18.7164179 L1.04477612,2.94029851 L13.0597015,2.94029851 L13.0597015,18.7164179 L12.9552239,18.7164179 Z M7,21.9552239 C6.47761194,21.9552239 5.95522388,21.5373134 5.95522388,20.9104478 C5.95522388,20.3880597 6.37313433,19.8656716 7,19.8656716 C7.52238806,19.8656716 8.04477612,20.2835821 8.04477612,20.9104478 C8.04477612,21.5373134 7.52238806,21.9552239 7,21.9552239 L7,21.9552239 Z M12.0149254,0.0149253731 L1.98507463,0.0149253731 C0.940298507,0.0149253731 0,0.955223881 0,2 L0,21.0149254 C0,22.1641791 0.940298507,23 1.98507463,23 L12.0149254,23 C13.1641791,23 14,22.0597015 14,21.0149254 L14,2 C14,0.955223881 13.0597015,0.0149253731 12.0149254,0.0149253731 L12.0149254,0.0149253731 Z" id="Page-1"/>
            </g>
        </g>
    </g>
</svg>