<svg xmlns="http://www.w3.org/2000/svg" xmlns:xlink="http://www.w3.org/1999/xlink" width="51px" height="48px" viewBox="0 0 51 48" version="1.1">
    <!-- Generator: Sketch 47.1 (45422) - http://www.bohemiancoding.com/sketch -->
    <title>电脑登录</title>
    <desc>Created with Sketch.</desc>
    <defs/>
    <g id="Page-1" stroke="none" stroke-width="1" fill="none" fill-rule="evenodd">
        <path d="M0.11743742,0.145398711 C0.589305764,0.0495076963 1.20700726,0 2.1277704,0 L45.8722296,1.77635684e-15 C47.6552671,-1.77635684e-15 48.3018396,0.185651222 48.9536914,0.534265408 C49.6055433,0.882879593 50.1171204,1.39445674 50.4657346,2.04630859 C50.8143488,2.69816044 51,3.34473292 51,5.1277704 L51,30.8722296 C51,32.6552671 50.8143488,33.3018396 50.4657346,33.9536914 C50.1171204,34.6055433 49.6055433,35.1171204 48.9536914,35.4657346 C48.3018396,35.8143488 47.6552671,36 45.8722296,36 L36,36 L36,44.5714286 L27.4615385,34 L45.8722296,34 C47.1959334,34 47.5990386,33.9221568 48.0104937,33.7021082 C48.3138086,33.5398936 48.5398936,33.3138086 48.7021082,33.0104937 C48.9221568,32.5990386 49,32.1959334 49,30.8722296 L49,5.1277704 C49,3.80406657 48.9221568,3.40096145 48.7021082,2.98950631 C48.5398936,2.68619141 48.3138086,2.46010639 48.0104937,2.2978918 C47.5990386,2.07784319 47.1959334,2 45.8722296,2 L2.1277704,2 C1.9407809,2 1.772162,2.00155336 1.61929508,2.00484152 L0.11743742,0.145398711 Z M36.3461538,45 L45.5,45 C46.3284271,45 47,45.6715729 47,46.5 C47,47.3284271 46.3284271,48 45.5,48 L38.7692308,48 L36.3461538,45 Z M4.84615385,6 L45,6 L45,30 L24.2307692,30 L4.84615385,6 Z" id="电脑登录" fill="#FFD100" fill-rule="nonzero"/>
    </g>
</svg>