<svg xmlns="http://www.w3.org/2000/svg" xmlns:xlink="http://www.w3.org/1999/xlink" width="51px" height="48px" viewBox="0 0 51 48" version="1.1">
    <!-- Generator: Sketch 47.1 (45422) - http://www.bohemiancoding.com/sketch -->
    <title>电脑登录-红</title>
    <desc>Created with Sketch.</desc>
    <defs/>
    <g id="Page-1" stroke="none" stroke-width="1" fill="none" fill-rule="evenodd">
        <path d="M-2.35367281e-14,0.145398711 C0.471868344,0.0495076963 1.08956984,0 2.01033298,0 L45.7547922,1.77635684e-15 C47.5378297,-1.77635684e-15 48.1844021,0.185651222 48.836254,0.534265408 C49.4881058,0.882879593 49.999683,1.39445674 50.3482972,2.04630859 C50.6969114,2.69816044 50.8825626,3.34473292 50.8825626,5.1277704 L50.8825626,30.8722296 C50.8825626,32.6552671 50.6969114,33.3018396 50.3482972,33.9536914 C49.999683,34.6055433 49.4881058,35.1171204 48.836254,35.4657346 C48.1844021,35.8143488 47.5378297,36 45.7547922,36 L35.8825626,36 L35.8825626,44.5714286 L27.344101,34 L45.7547922,34 C47.078496,34 47.4816011,33.9221568 47.8930563,33.7021082 C48.1963712,33.5398936 48.4224562,33.3138086 48.5846708,33.0104937 C48.8047194,32.5990386 48.8825626,32.1959334 48.8825626,30.8722296 L48.8825626,5.1277704 C48.8825626,3.80406657 48.8047194,3.40096145 48.5846708,2.98950631 C48.4224562,2.68619141 48.1963712,2.46010639 47.8930563,2.2978918 C47.4816011,2.07784319 47.078496,2 45.7547922,2 L2.01033298,2 C1.82334348,2 1.65472458,2.00155336 1.50185766,2.00484152 L1.25552346e-13,0.145398711 Z M36.2287164,45 L45.3825626,45 C46.2109897,45 46.8825626,45.6715729 46.8825626,46.5 C46.8825626,47.3284271 46.2109897,48 45.3825626,48 L38.6517933,48 L36.2287164,45 Z M4.72871643,6 L44.8825626,6 L44.8825626,30 L24.1133318,30 L4.72871643,6 Z" id="电脑登录-红" fill="#EA4335" fill-rule="nonzero"/>
    </g>
</svg>