<svg xmlns="http://www.w3.org/2000/svg" xmlns:xlink="http://www.w3.org/1999/xlink" width="170px" height="30px" viewBox="0 0 170 30" version="1.1">
    <!-- Generator: Sketch 47.1 (45422) - http://www.bohemiancoding.com/sketch -->
    <title>站酷logo</title>
    <desc>Created with Sketch.</desc>
    <defs/>
    <g id="四方登录" stroke="none" stroke-width="1" fill="none" fill-rule="evenodd">
        <g id="站酷logo" fill="#FFFFFF">
            <path d="M79.5366737,19.50321 C78.4408183,20.60031 76.9255097,21.27891 75.2527937,21.27891 C73.5797778,21.27891 72.064769,20.60031 70.9686138,19.50321 C69.8724586,18.40641 69.1939577,16.89111 69.1939577,15.21741 C69.1939577,13.54371 69.8724586,12.02751 70.9686138,10.93041 C72.064769,9.83361 73.5797778,9.15501 75.2527937,9.15501 C76.9255097,9.15501 78.4408183,9.83361 79.5366737,10.93041 C80.6334286,12.02751 81.3116296,13.54371 81.3116296,15.21741 C81.3116296,16.89111 80.6334286,18.40641 79.5366737,19.50321 M58.9855626,19.50321 C57.8894074,20.60031 56.3746984,21.27891 54.7013827,21.27891 C53.0286667,21.27891 51.5136578,20.60031 50.4175026,19.50321 C49.3213474,18.40641 48.6428466,16.89111 48.6428466,15.21741 C48.6428466,13.54311 49.3213474,12.02751 50.4175026,10.93041 C51.5136578,9.83361 53.0286667,9.15501 54.7013827,9.15501 C56.3746984,9.15501 57.8894074,9.83361 58.9855626,10.93041 C60.0817178,12.02751 60.7599189,13.54311 60.7599189,15.21741 C60.7599189,16.89111 60.0817178,18.40641 58.9855626,19.50321 M108.475951,19.35501 C107.710201,20.15001 106.750466,21.49251 104.580942,21.63981 L96.078843,21.22911 L96.0710476,9.97221 C96.0680494,6.03951 96.779231,4.78851 97.6457213,4.16151 C98.6990018,3.39891 99.9825467,2.90001 100.494646,0.83571 C100.534222,0.67521 100.560007,0.40371 100.480554,0.24471 C100.399601,0.08511 100.213411,0.03771 100.018526,0.32271 C99.3052451,1.37031 98.7646631,1.81041 97.3162152,1.46511 C93.1129877,0.46251 88.3667795,-0.18429 88.3667795,7.76601 L88.3658801,8.58381 C88.3652804,9.10101 87.9317354,9.42051 87.5812416,8.65071 C87.5299718,8.53791 87.4766032,8.42601 87.4223351,8.31471 C86.4005362,6.22191 85.0822116,4.42041 83.0071323,3.08871 C80.768649,1.65321 78.1077143,0.82071 75.2527937,0.82071 C72.3337108,0.82071 69.399037,1.61211 67.1065855,3.39981 C65.6908183,4.50381 64.6438342,6.07191 64.083164,7.37721 C63.9791252,7.61871 63.6484198,8.05311 63.4703245,7.62141 C63.0634638,6.63651 64.2507654,4.75521 64.5427937,3.36021 C64.6273439,2.95521 64.6411358,2.58231 64.5874674,2.27811 C64.4465503,1.48851 64.0393898,1.89261 63.9695309,2.18241 C63.5131993,4.09401 61.3820529,2.90751 60.3578554,2.34711 C58.5846984,1.37721 56.8559153,0.82071 54.7013827,0.82071 C50.7293192,0.82071 47.1320353,2.43231 44.5283668,5.03811 C41.9243986,7.64331 40.3134462,11.24271 40.3134462,15.21741 C40.3134462,19.19121 41.7531993,22.96161 44.3574674,25.56711 C46.9611358,28.17291 50.7293192,29.61351 54.7013827,29.61351 C57.6507478,29.61351 64.07297,27.71181 63.41006,23.87601 C63.3728818,23.66091 63.2208713,23.07741 63.2955273,22.93491 C63.4142575,22.70721 63.5917531,22.73511 63.7470617,22.93461 C64.0870617,23.36871 64.3047337,23.86491 64.5862681,24.30261 C66.4583668,27.21651 70.6855802,29.61351 75.2527937,29.61351 C77.7353333,29.61351 80.0718589,28.98321 82.11006,27.87441 C84.5278377,26.56071 86.1945573,24.49311 87.3809594,22.09341 C87.419037,22.01511 87.456515,21.93771 87.4933933,21.86031 C87.8258977,21.15621 88.3532875,21.04221 88.3532875,21.93261 L88.3478907,27.56151 C88.3478907,29.19951 89.9732346,29.87481 92.536127,29.63061 L103.830483,29.63061 C106.70939,29.63061 107.925774,28.62291 108.287661,26.45271 C108.574892,24.72831 108.305651,23.49981 108.416286,22.34061 C108.57879,20.64591 109.13946,19.78671 109.198226,19.65861 C109.431788,19.14861 108.927485,18.88611 108.475951,19.35501" id="Fill-1"/>
            <path d="M41.9500935,24.17871 C40.196425,22.88811 39.5868836,22.26951 40.342739,20.41821 C40.6026861,19.77981 40.1343616,19.61451 39.8282416,19.85841 C37.886284,21.40431 35.5407637,21.77961 33.2108342,21.02361 C26.7241499,18.91851 28.828612,8.32131 35.757836,9.16011 C38.4019806,9.48021 40.6821393,8.78781 42.0004638,6.08481 C42.6912575,4.66851 42.9967778,3.20781 43.3079947,0.54411 C43.3940441,-0.10989 42.7290353,-0.12579 42.5800229,0.23931 C42.1284885,1.34541 41.6979418,1.67091 41.2137266,1.78401 C39.8753139,2.09721 38.6415397,1.46481 37.2851376,1.25001 C35.0979242,0.90321 33.4989647,0.92241 31.3924039,1.48191 C28.9779242,2.12301 26.8042028,3.34941 25.0961076,5.05941 C22.4915397,7.66551 20.966037,11.39271 20.966037,15.36711 C20.966037,17.03751 21.1699171,18.64131 21.5995644,20.13321 C21.600164,20.14251 21.601963,20.15001 21.6043616,20.15901 C22.0124215,21.84351 21.6823157,21.78711 20.4038677,21.81381 L10.5864427,21.81381 L19.4288413,12.12111 C22.0513986,9.49671 22.0280123,8.24901 22.0280123,4.99401 C22.0280123,3.93531 21.9236737,2.88501 22.1473422,1.83921 C22.2561781,1.33101 22.0067249,1.19331 21.5042205,1.36671 C20.5771658,1.68711 18.7962134,1.64691 16.0273422,1.64691 L3.22307407,1.66731 C2.51728924,1.62561 2.13081658,1.16751 2.39825926,0.60441 C2.4660194,0.46131 2.53048148,0.05511 2.17788889,0.10071 C0.281804233,1.01751 -0.116361552,4.82961 0.0263544974,7.28481 C0.0971128748,8.51211 0.768118166,9.31401 1.70716578,9.31491 L11.8648907,9.31491 L1.44781834,20.36571 C0.71235097,21.15441 0.0302522046,22.33731 0.0302522046,23.91411 L0.0416455026,27.07581 C0.0242557319,28.51191 0.836477954,29.35521 2.47801235,29.60571 L19.8890705,29.60571 C21.5884709,29.28501 22.7844674,28.52331 22.5871834,26.54211 L22.5871834,24.44631 C22.7152081,23.89371 23.0926861,23.93121 23.5001464,24.10701 C23.8653316,24.61431 24.2727919,25.09521 24.7237266,25.54611 C27.3276949,28.15221 30.924679,29.76351 34.8970423,29.76351 C36.1452081,29.76351 37.7138854,29.51601 39.3473245,28.76301 C40.8818219,28.05591 42.5140617,26.88141 42.7731093,25.65501 C42.8753492,25.16871 42.6058078,24.66111 41.9500935,24.17871" id="Fill-3"/>
            <path d="M125.256869,5.43369 L118.994753,5.43369 L121.437116,4.77639 C121.316587,4.45569 121.150785,4.09029 120.949603,3.68859 C120.743624,3.28689 120.51246,2.87679 120.255811,2.46279 C120.000062,2.04459 119.728422,1.65489 119.447187,1.29399 L116.401279,2.00019 C116.627646,2.35299 116.848616,2.73069 117.069586,3.13239 C117.291155,3.53439 117.492337,3.93609 117.672831,4.33389 C117.859021,4.72749 118.004436,5.09709 118.120168,5.43369 L112.723942,5.43369 L112.723942,8.85969 L125.256869,8.85969 L125.256869,5.43369 Z" id="Fill-6"/>
            <path d="M114.895085,23.31738 L117.820464,22.59708 C117.603691,18.63798 117.118577,14.64288 116.463462,10.75488 L113.718877,11.33058 C114.281046,15.28038 114.771857,19.31028 114.895085,23.31738" id="Fill-8"/>
            <path d="M135.394656,16.71474 C135.569453,16.70724 135.783527,16.76814 135.783527,17.10144 L135.783527,25.69824 C135.780529,25.87014 135.696878,25.94334 135.531376,25.91964 L128.768554,25.91964 C128.600653,25.95144 128.514004,25.87014 128.508007,25.67364 L128.508007,17.07864 C128.478025,16.75344 128.65552,16.67724 128.926861,16.71474 L135.394656,16.71474 Z M139.898307,4.45404 C139.563404,4.78734 139.203016,5.19804 138.211799,5.27274 L135.885168,5.27274 L135.885168,5.28024 L133.148977,5.28024 L133.148977,1.14294 L129.64134,1.14294 L129.64134,13.36554 L127.283827,13.36554 C125.854268,13.36554 124.96739,13.67844 124.96739,14.96004 L124.96739,27.41334 C124.96739,28.82304 125.779612,29.30274 127.31231,29.31414 L136.700988,29.38494 C138.627055,29.32614 139.380811,28.38324 139.243192,27.12954 L139.285168,15.07944 C139.285168,13.84764 138.170423,13.36554 136.807125,13.36554 L133.148977,13.36554 L133.148977,8.69004 L135.885168,8.69004 L135.885168,8.69454 L137.933563,8.69454 C139.001834,8.69454 139.532522,8.21034 139.666543,7.31934 C139.77328,6.61134 139.593986,6.03654 139.635661,5.56074 C139.695926,4.86474 139.937584,4.41474 139.898307,4.45404 L139.898307,4.45404 Z" id="Fill-10"/>
            <path d="M164.620444,12.42744 L164.620444,8.71614 L167.273884,8.71614 L167.273884,8.71584 L167.539827,8.71584 C168.519351,8.71584 169.005665,8.27184 169.128293,7.45524 C169.226035,6.80664 169.061732,6.27984 169.09951,5.84334 C169.155277,5.20554 169.377146,4.79334 169.341467,4.82844 C169.034448,5.13414 168.703143,5.51124 167.795277,5.57964 L167.273884,5.57964 L167.273884,5.57814 L164.620444,5.57814 L164.620444,1.14294 L161.530162,1.14294 L161.530162,5.57814 L159.563919,5.57814 C159.742314,4.59534 160.013654,3.60294 160.162367,2.62104 L157.162332,2.04774 C157.066988,2.84244 156.946159,3.63714 156.800744,4.43634 C156.65503,5.23134 156.483531,6.00564 156.288046,6.75504 C156.092261,7.50444 155.870991,8.20854 155.619439,8.87184 C155.368187,9.53124 155.092049,10.12404 154.780233,10.64724 C155.792437,11.06694 156.496123,11.58324 157.392896,12.21654 C157.649245,11.71884 157.891203,11.17524 158.11637,10.59204 C158.343337,10.00434 158.553813,9.38004 158.749898,8.71614 L161.530162,8.71614 L161.530162,12.42744 L155.41376,12.42744 L155.41376,15.59574 L169.978593,15.59574 L169.978593,12.42744 L164.620444,12.42744 Z" id="Fill-12"/>
            <path d="M151.970436,25.88055 L145.195021,25.88055 C144.902393,25.88055 144.899095,25.69425 144.896097,25.58055 L144.896097,23.36985 L152.265762,23.36985 L152.265762,25.56075 C152.296644,25.74465 152.198302,25.85175 151.970436,25.88055 L151.970436,25.88055 Z M144.896097,18.49635 L146.109783,19.84785 C147.095303,18.73455 147.751317,17.51205 147.954898,16.03335 C148.044845,15.37965 148.085621,14.75595 148.085621,14.16765 L148.085621,10.79805 L149.111018,10.79805 L149.111018,16.64115 C149.111018,18.39765 149.523575,18.84465 151.301229,18.84465 L152.265762,18.84465 L152.265762,20.77545 L144.896097,20.77545 L144.896097,18.49635 Z M144.896097,11.08515 C144.905392,10.88925 144.997437,10.79415 145.173434,10.79805 L145.951476,10.79805 L145.951476,13.88055 C145.951476,14.30205 145.936185,14.74545 145.885515,15.20235 C145.836044,15.65535 145.735004,16.10805 145.583892,16.56015 C145.433981,17.01285 145.202217,17.44575 144.896097,17.86245 L144.896097,11.08515 Z M147.84906,7.81095 L149.554157,7.81095 L149.554157,5.18595 L147.84906,5.18595 L147.84906,7.81095 Z M151.270647,10.79805 L151.978231,10.79805 C152.215691,10.79805 152.265762,10.83135 152.265762,11.11035 L152.265762,16.72125 L152.170118,16.72125 L152.054686,16.72125 L151.542287,16.72125 C151.427155,16.72125 151.351899,16.70535 151.315621,16.65045 C151.282041,16.59975 151.270647,16.46985 151.270647,16.26885 L151.270647,10.79805 Z M152.186908,7.81095 L152.186908,5.18595 L155.265497,5.18595 L155.265497,2.22855 L142.269042,2.22855 L142.269042,5.18595 L145.160541,5.18595 L145.160541,7.81095 C143.230577,7.81095 142.416556,7.89345 142.416556,9.37635 L142.416556,27.53625 C142.416556,28.66425 142.773346,29.12265 145.041811,29.12685 L152.394386,29.14035 C153.766679,29.14035 154.780083,28.85985 154.780083,27.53415 L154.780083,10.64745 L154.780083,9.25605 C154.780083,8.05365 154.306961,7.81095 152.186908,7.81095 L152.186908,7.81095 Z" id="Fill-14"/>
            <path d="M165.710813,25.99599 L159.825575,25.99599 C159.644781,25.99599 159.491871,25.96179 159.536845,25.68909 L159.536845,20.78589 C159.536845,20.54529 159.508362,20.42619 159.832171,20.42649 L165.642753,20.43579 C165.9036,20.43549 166.034023,20.37849 166.034023,20.71599 L166.03912,25.68909 C165.996545,25.90389 165.887709,26.00649 165.710813,25.99599 M166.966175,17.31429 L158.852947,17.31279 C157.30166,17.31279 156.378203,17.72139 156.378203,19.00569 L156.378203,27.32409 C156.378203,28.28769 156.561395,29.06019 158.902118,29.07639 L166.364429,29.12259 C168.038644,29.19699 168.947409,28.80759 169.134199,27.39459 L169.134199,19.21389 C169.134199,17.64489 167.991272,17.31429 166.966175,17.31429" id="Fill-16"/>
            <path d="M121.620339,23.7369 C122.536899,19.6182 123.078681,15.3138 123.700515,11.1144 L120.413848,10.467 C120.072649,15.132 119.588734,19.962 118.725242,24.5286 C117.528646,24.8223 116.403108,25.0929 115.342332,25.3449 C114.287252,25.5963 113.332314,25.8012 112.482914,25.9686 L113.266952,29.6163 C114.332226,29.3283 115.478152,29.01 116.719721,28.668 C117.955894,28.3269 119.232843,27.9666 120.549968,27.588 C121.871591,27.2166 123.183019,26.8329 124.484554,26.4486 L124.122667,23.0892 L121.620339,23.7369 Z" id="Fill-18"/>
        </g>
    </g>
</svg>