<?xml version="1.0" encoding="utf-8"?>
<!-- Generator: Adobe Illustrator 24.0.0, SVG Export Plug-In . SVG Version: 6.00 Build 0)  -->
<svg version="1.1" id="图层_1" xmlns="http://www.w3.org/2000/svg" xmlns:xlink="http://www.w3.org/1999/xlink" x="0px" y="0px"
	 viewBox="0 0 34 40" style="enable-background:new 0 0 34 40;" xml:space="preserve">
<style type="text/css">
	.st0{fill-rule:evenodd;clip-rule:evenodd;fill:#FFFFFF;stroke:#979797;}
	.st1{fill:#566485;}
	.st2{fill:#788BB6;}
	.st3{fill:#FFFFFF;}
</style>
<title>EXE@1x</title>
<g id="_x39_月持续迭代">
	<g id="消息-文件气泡备份" transform="translate(-309.000000, -276.000000)">
		<g id="EXE" transform="translate(309.000000, 276.000000)">
			<rect id="矩形" x="7.5" y="2.5" class="st0" width="8" height="18"/>
			<path id="形状" class="st1" d="M24,0H4.7C2.1,0,0,2.1,0,4.6v30.8C0,37.9,2.1,40,4.7,40h24.7c2.6,0,4.7-2.1,4.7-4.6V10L24,0z
				 M13.6,8.8H11v2.6h2.6v2.6H11v2.6h2.6V19H11v-2.6H8.4v-2.6H11v-2.6H8.4V8.8H11V6.2H8.4V3.7H11v2.6h2.6V8.8z"/>
			<path id="矩形_1_" class="st2" d="M24,0l10,10h-8c-1.1,0-2-0.9-2-2V0L24,0z"/>
			<path class="st3" d="M13.6,33v-0.8H10v-1.9h3.3v-0.8H10v-1.7h3.5V27H9v6H13.6z M15.2,33l1.7-2.4l1.7,2.4h1.2l-2.3-3.1l2.1-2.9
				h-1.2l-1.5,2.2L15.4,27h-1.2l2.1,2.9L14,33H15.2z M25,33v-0.8h-3.7v-1.9h3.3v-0.8h-3.3v-1.7h3.5V27h-4.5v6H25z"/>
		</g>
	</g>
</g>
</svg>
