<?xml version="1.0" standalone="no"?><!DOCTYPE svg PUBLIC "-//W3C//DTD SVG 1.1//EN" "http://www.w3.org/Graphics/SVG/1.1/DTD/svg11.dtd"><svg t="1609987375329" class="icon" viewBox="0 0 1865 1024" version="1.1" xmlns="http://www.w3.org/2000/svg" p-id="1266" xmlns:xlink="http://www.w3.org/1999/xlink" width="364.2578125" height="200"><defs><style type="text/css"></style></defs><path d="M310.857143 4.973714a310.857143 310.857143 0 1 1 0 621.714286 310.857143 310.857143 0 0 1 0-621.714286z m0 146.285715a164.571429 164.571429 0 1 0 0 329.142857 164.571429 164.571429 0 0 0 0-329.142857zM694.857143 4.973714v621.714286h150.674286v-195.401143l56.832-69.046857 159.707428 264.448H1243.428571L1005.238857 248.758857 1216.365714 4.973714h-184.978285l-184.978286 238.811429-2.669714-238.811429zM1441.792 283.501714V107.081143h150.966857c31.597714 0 55.296 6.875429 71.094857 20.626286 15.798857 13.750857 23.698286 35.84 23.698286 66.267428 0 31.597714-7.899429 54.418286-23.698286 68.461714-15.798857 14.043429-39.497143 21.065143-71.094857 21.065143h-150.966857zM1303.990857 0h337.92c28.086857 0 53.394286 4.534857 75.922286 13.604571a174.738286 174.738286 0 0 1 57.929143 37.302858c16.091429 15.798857 28.379429 34.084571 36.864 54.857142 8.484571 20.772571 12.726857 43.154286 12.726857 67.145143 0 36.864-7.753143 68.754286-23.259429 95.670857-15.506286 26.916571-40.813714 47.396571-75.922285 61.44v1.755429c16.969143 4.681143 31.012571 11.849143 42.130285 21.504 11.117714 9.654857 20.187429 21.065143 27.209143 34.230857 7.021714 13.165714 12.141714 27.648 15.36 43.446857 3.218286 15.798857 5.412571 31.597714 6.582857 47.396572l0.877715 16.237714 0.877714 18.870857c0.585143 13.458286 1.609143 27.209143 3.072 41.252572 1.462857 14.043429 3.803429 27.355429 7.021714 39.936 3.218286 12.580571 8.045714 23.259429 14.482286 32.036571h-137.801143a229.741714 229.741714 0 0 1-13.129143-59.538286l-0.914286-11.556571a1061.156571 1061.156571 0 0 0-7.899428-78.994286c-4.681143-32.768-14.628571-56.758857-29.842286-71.972571-15.213714-15.213714-40.082286-22.820571-74.605714-22.820572h-137.801143v244.882286h-137.801143V0z" fill="#0B5DD9" p-id="1267"></path><path d="M1443.108571 108.397714h165.485715c52.662857 3.584 78.957714 32.109714 78.957714 85.577143 0 53.467429-26.331429 83.309714-78.994286 89.526857l-165.412571 0.146286V108.397714z" fill="#FFFFFF" p-id="1268"></path><path d="M74.715429 891.355429c0-21.284571-1.974857-36.937143-5.888-46.994286-3.913143-10.057143-10.459429-15.104-19.602286-15.104-8.411429 0-14.518857 4.608-18.285714 13.824-3.803429 9.179429-5.668571 23.296-5.668572 42.276571 0 19.968 1.938286 35.072 5.851429 45.275429 3.949714 10.203429 10.130286 15.286857 18.541714 15.286857 8.850286 0 15.250286-4.534857 19.163429-13.568 3.913143-9.069714 5.851429-22.747429 5.851428-40.996571z m19.492571-7.936c0 20.553143-4.205714 37.302857-12.544 50.322285-8.338286 12.982857-19.492571 19.456-33.499429 19.456-13.714286 0-24.137143-5.266286-31.341714-15.835428-7.241143-10.569143-10.825143-25.307429-10.825143-44.288 0-21.723429 4.132571-39.021714 12.434286-51.931429 8.265143-12.909714 19.675429-19.382857 34.230857-19.382857 13.275429 0 23.515429 5.485714 30.72 16.493714 7.204571 10.971429 10.825143 26.038857 10.825143 45.165715z m97.828571 22.893714a36.315429 36.315429 0 0 0-8.557714-23.954286c-5.741714-6.838857-12.434286-10.276571-20.114286-10.276571a23.332571 23.332571 0 0 0-12.763428 3.291428c-3.510857 2.230857-7.241143 6.217143-11.227429 11.885715v48.822857c6.582857 6.582857 13.970286 9.874286 22.272 9.874285 9.142857 0 16.457143-3.657143 22.016-10.825142 5.595429-7.204571 8.374857-16.822857 8.374857-28.818286z m16.457143-5.961143c0 15.981714-5.083429 28.854857-15.286857 38.619429-10.24 9.764571-23.588571 14.665143-40.155428 14.665142-6.253714 0-11.995429-0.438857-17.188572-1.28a64.914286 64.914286 0 0 1-14.921143-4.278857c1.28-7.314286 2.194286-16.822857 2.669715-28.598857 0.365714-7.826286 0.585143-16.054857 0.694857-24.612571l0.073143-57.453715c0-4.864-0.219429-8.886857-0.658286-12.105142a14.153143 14.153143 0 0 0-1.901714-6.436572c-0.658286-0.804571-2.084571-1.28-4.352-1.462857l-5.485715-0.219429a3.510857 3.510857 0 0 1-0.658285-0.146285c-0.292571-0.073143-0.475429-0.365714-0.585143-0.950857l-0.073143-0.950858c0-2.011429 0.073143-3.145143 0.219428-3.437714 0.182857-0.292571 0.658286-0.475429 1.353143-0.548571l26.916572-1.828572c0.987429 0 1.462857 0.658286 1.462857 1.938286l-0.621714 26.148571v38.290286c9.874286-11.117714 20.772571-16.676571 32.768-16.676571 9.874286 0 18.285714 4.022857 25.234285 12.068571 7.021714 8.082286 10.496 17.810286 10.496 29.257143z m46.884572 48.566857c0 15.286857-3.035429 25.965714-9.179429 32.109714-3.584 3.730286-8.411429 6.802286-14.555428 9.216s-11.995429 3.657143-17.554286 3.657143l-6.948572-0.109714a39.972571 39.972571 0 0 1-4.205714-0.365714c-1.828571-0.256-2.779429-0.841143-2.779428-1.682286l0.292571-4.937143 0.731429-6.838857 0.256-5.12c0-2.011429 0.365714-2.998857 1.097142-2.998857h3.657143c0.694857 0 1.243429 0.548571 1.682286 1.682286 1.28 4.754286 2.889143 7.972571 4.827429 9.764571 1.901714 1.792 4.754286 2.669714 8.411428 2.669714 7.606857 0 12.653714-4.205714 15.213714-12.617143 1.865143-6.290286 2.816-17.298286 2.816-32.987428l-1.28-53.76c-0.402286-9.069714-1.426286-14.409143-3.035428-16.018286-0.841143-0.877714-2.450286-1.462857-4.754286-1.718857l-2.596571-0.219429c-3.803429-0.146286-5.705143-0.768-5.705143-1.901714v-2.998857c0-0.950857 2.852571-1.609143 8.484571-1.974857l17.078857-0.877714a21.467429 21.467429 0 0 0 1.426286-0.146286l3.657143-0.219429c1.28 0 1.901714 0.548571 1.901714 1.718857l-0.621714 25.892572 1.682286 60.781714z m-0.402286-119.661714c0 2.998857-1.097143 5.558857-3.218286 7.68a10.496 10.496 0 0 1-7.68 3.254857 10.496 10.496 0 0 1-7.753143-3.218286 10.496 10.496 0 0 1 0-15.213714 10.496 10.496 0 0 1 7.716572-3.218286c2.998857 0 5.558857 1.024 7.68 2.998857a10.057143 10.057143 0 0 1 3.254857 7.716572z m79.616 55.881143a21.321143 21.321143 0 0 0-4.388571-13.824 14.884571 14.884571 0 0 0-12.288-5.449143 20.150857 20.150857 0 0 0-15.213715 6.546286 31.926857 31.926857 0 0 0-7.936 17.664h37.924572c1.28 0 1.901714-1.645714 1.901714-4.937143z m18.212571 4.059428c0 2.852571-0.365714 4.827429-1.170285 5.888-0.804571 1.097143-2.121143 1.609143-3.986286 1.609143h-54.125714l-0.219429 4.717714c0 14.994286 3.766857 25.892571 11.337143 32.731429a28.233143 28.233143 0 0 0 19.456 7.314286 20.809143 20.809143 0 0 0 13.092571-4.315429l8.777143-9.618286 3.620572 2.121143 0.658285 1.097143c0 3.84-2.742857 8.265143-8.155428 13.275429a36.571429 36.571429 0 0 1-25.673143 9.618285c-11.849143 0-21.540571-4.096-29.001143-12.288-7.497143-8.228571-11.264-18.834286-11.264-31.817142 0-13.970286 4.132571-25.892571 12.434286-35.730286 8.265143-9.874286 18.541714-14.774857 30.829714-14.774857a34.011429 34.011429 0 0 1 23.954286 8.667428 28.050286 28.050286 0 0 1 9.435428 21.504z m87.990858 43.446857c0 4.022857-3.803429 8.777143-11.337143 14.372572a34.304 34.304 0 0 1-20.589715 6.619428 39.862857 39.862857 0 0 1-29.952-12.214857c-7.862857-8.118857-11.776-18.468571-11.776-31.012571 0-15.872 4.717714-28.342857 14.116572-37.485714 9.435429-9.142857 22.491429-13.677714 39.204571-13.677715 5.705143 0 11.190857 0.731429 16.457143 2.121143l1.499429 27.209143c0 0.987429-0.365714 1.462857-1.060572 1.462857h-3.84a1.28 1.28 0 0 1-1.243428-0.731428l-0.256-0.950858a26.258286 26.258286 0 0 0-8.374857-14.994285 22.016 22.016 0 0 0-15.177143-5.997715 21.577143 21.577143 0 0 0-18.212572 8.777143c-4.388571 5.851429-6.619429 13.494857-6.619428 22.893715 0 13.019429 2.925714 23.588571 8.886857 31.817142 5.924571 8.192 13.531429 12.288 22.784 12.288a18.761143 18.761143 0 0 0 11.995428-4.059428l9.618286-9.216 1.938286 0.877714c1.28 0.731429 1.938286 1.353143 1.938286 1.901714z m71.058285-64.621714c0 0.987429-0.512 1.462857-1.462857 1.462857h-28.525714l-0.621714 51.382857c0 8.301714 0.768 14.262857 2.340571 17.92 1.572571 3.620571 4.754286 5.449143 9.435429 5.449143 3.437714 0 6.217143-1.170286 8.338285-3.437714l5.778286-7.936 3.876571 1.499429 0.621715 0.877714c0 4.827429-2.925714 9.325714-8.777143 13.458286a27.867429 27.867429 0 0 1-16.676572 4.937142c-7.131429 0-12.544-1.974857-16.164571-5.851428a22.528 22.528 0 0 1-5.485714-15.981714l0.512-8.521143a1198.372571 1198.372571 0 0 0 1.206857-53.76h-13.897143c-1.133714 0-1.718857-0.585143-1.718857-1.718857v-4.059429c0-0.877714 0.438857-1.536 1.316571-2.011429l1.682286-0.585142a25.161143 25.161143 0 0 0 15.616-10.496l8.996571-16.676572 2.486858 0.109714a1.828571 1.828571 0 0 1 0.512 0.109715c0.438857 0.146286 0.658286 0.731429 0.658285 1.718857v26.331428h28.013715c1.316571 0 1.938286 0.475429 1.938285 1.462858v4.315428z m53.942857 80.896c0 1.28-0.914286 1.938286-2.779428 1.938286h-43.666286c-1.426286 0-2.267429-0.658286-2.56-1.938286v-3.181714c0-1.024 0.914286-1.499429 2.779429-1.499429 6.692571 0 10.825143-1.462857 12.434285-4.388571 1.316571-2.523429 2.084571-8.777143 2.267429-18.797714l0.073143-35.913143c0-8.265143-0.512-13.165714-1.499429-14.555429-1.024-1.462857-4.388571-2.157714-10.057143-2.157714-2.852571 0-4.278857-0.731429-4.278857-2.121143v-2.998857c0-0.548571 0.731429-0.877714 2.157715-1.024l8.996571-0.365714 19.017143-1.389715c1.572571 0 2.340571 0.548571 2.340571 1.718857l-0.841143 40.009143 0.219429 16.530286 0.841143 24.137143 8.96 1.28 3.035428 0.219428c1.718857 0 2.56 0.438857 2.56 1.316572v3.181714z m-13.494857-119.661714c0 2.998857-1.060571 5.558857-3.181714 7.68a10.496 10.496 0 0 1-7.716571 3.254857 10.496 10.496 0 0 1-7.68-3.218286 10.496 10.496 0 0 1-3.254858-7.68c0-3.035429 1.060571-5.632 3.108572-7.862857a10.24 10.24 0 0 1 7.826286-3.291428c2.998857 0 5.558857 1.060571 7.68 3.218285 2.194286 2.121143 3.218286 4.754286 3.218285 7.899429z m126.537143 37.485714c0 0.731429-0.329143 1.243429-0.950857 1.499429l-1.206857 0.182857c-2.56 0-5.156571 1.865143-7.789714 5.595428a115.236571 115.236571 0 0 0-9.764572 18.614858l-22.674286 50.505142-3.291428 7.606858c-0.950857 1.938286-1.718857 2.925714-2.267429 2.925714h-7.314285c-0.548571 0-1.060571-0.475429-1.462858-1.316572l-3.657142-7.936-13.677715-31.890285a598.893714 598.893714 0 0 0-10.093714-21.869715l-5.12-10.24a35.547429 35.547429 0 0 0-6.326857-9.874285c-1.645714-1.389714-4.242286-2.121143-7.789714-2.121143-1.170286 0-1.718857-0.548571-1.718858-1.682286l0.073143-2.962286c0.036571-0.329143 0.073143-0.548571 0.146286-0.694857 0.146286-0.585143 0.621714-0.841143 1.462857-0.841143H618.057143c1.828571 0 2.779429 0.475429 2.779428 1.462858v3.657142c0 0.475429-0.475429 0.804571-1.462857 0.950858l-1.755428 0.109714a15.36 15.36 0 0 0-7.314286 1.499428c-1.828571 1.024-2.742857 2.706286-2.742857 5.12 0 2.011429 2.304 8.594286 6.948571 19.748572l11.556572 26.441143c2.669714 5.961143 4.754286 10.459429 6.326857 13.568l19.456-47.542857c1.170286-2.706286 2.084571-5.302857 2.779428-7.789715 0.731429-2.486857 1.097143-4.388571 1.097143-5.668571 0-1.865143-1.097143-3.218286-3.328-4.096a26.697143 26.697143 0 0 0-9.325714-1.28c-1.426286 0-2.121143-0.402286-2.121143-1.28v-3.657143c0-0.841143 0.438857-1.243429 1.28-1.243429h34.450286c1.462857 0 2.157714 0.621714 2.157714 1.901715v2.56z m73.654857 18.395429a21.321143 21.321143 0 0 0-4.388571-13.824 14.884571 14.884571 0 0 0-12.324572-5.449143 20.150857 20.150857 0 0 0-15.213714 6.546286 31.926857 31.926857 0 0 0-7.899428 17.664h37.888c1.28 0 1.938286-1.645714 1.938285-4.937143z m18.176 4.059428c0 2.852571-0.365714 4.827429-1.170285 5.888-0.768 1.097143-2.121143 1.609143-3.949715 1.609143h-54.162285l-0.219429 4.717714c0 14.994286 3.766857 25.892571 11.337143 32.731429a28.233143 28.233143 0 0 0 19.492571 7.314286 20.809143 20.809143 0 0 0 13.056-4.315429l8.777143-9.618286 3.657143 2.121143 0.621714 1.097143c0 3.84-2.706286 8.265143-8.155428 13.275429a36.571429 36.571429 0 0 1-25.673143 9.618285c-11.849143 0-21.504-4.096-29.001143-12.288-7.497143-8.228571-11.227429-18.834286-11.227429-31.817142 0-13.970286 4.132571-25.892571 12.434286-35.730286 8.228571-9.874286 18.505143-14.774857 30.793143-14.774857a34.011429 34.011429 0 0 1 23.990857 8.667428 28.050286 28.050286 0 0 1 9.398857 21.504zM901.924571 948.918857c0 1.28-0.548571 1.938286-1.682285 1.938286h-51.821715c-0.731429 0-1.097143-0.585143-1.097142-1.718857v-3.401143c0-1.097143 0.731429-1.755429 2.194285-2.011429l1.682286-0.146285c6.290286 0 10.24-1.353143 11.885714-4.059429 1.645714-2.706286 2.450286-9.362286 2.450286-19.931429v-67.657142c0-9.691429-0.731429-15.579429-2.230857-17.627429-1.499429-2.084571-6.034286-3.108571-13.604572-3.108571-1.572571 0-2.340571-0.438857-2.340571-1.28v-4.278858c0-0.731429 0.621714-1.097143 1.901714-1.097142h49.883429c0.877714 0 1.462857 0.073143 1.718857 0.219428 0 0.146286 0.073143 0.292571 0.219429 0.438857v5.12l-0.219429 0.219429a8.630857 8.630857 0 0 1-3.401143 0.658286c-5.997714 0-9.801143 0.621714-11.337143 1.901714-1.609143 1.316571-2.377143 4.425143-2.377143 9.435428v80.932572l0.182858 8.484571c0.256 4.754286 0.731429 7.753143 1.536 8.96 1.097143 1.792 5.193143 2.669714 12.178285 2.669715 2.852571 0 4.278857 0.731429 4.278857 2.157714v3.181714z m65.755429 0.219429c0 1.133714-0.512 1.718857-1.499429 1.718857h-44.105142c-1.572571 0-2.377143-0.512-2.377143-1.499429v-3.218285c0-1.133714 0.219429-1.792 0.658285-1.901715a7.936 7.936 0 0 1 2.267429-0.365714l1.828571-0.073143c3.254857 0 4.900571-1.097143 4.900572-3.218286 0-2.011429-4.571429-8.777143-13.714286-20.333714l-29.988571-38.326857 23.149714-23.113143c6.985143-6.985143 12.105143-12.507429 15.396571-16.457143 3.291429-4.022857 4.937143-6.802286 4.937143-8.411428 0-1.353143-0.768-2.194286-2.304-2.56l-1.755428-0.182857a7.606857 7.606857 0 0 1-3.437715-0.877715v-4.278857c0-0.987429 0.658286-1.462857 1.938286-1.462857h38.107429c0.402286 0 0.841143 0.182857 1.28 0.621714v4.059429c0 0.950857-0.621714 1.572571-1.828572 1.828571l-1.389714 0.109715a23.186286 23.186286 0 0 0-11.995429 3.401142 72.045714 72.045714 0 0 0-11.702857 9.472l-32.621714 32.512 10.569143 13.824c14.811429 19.309714 25.124571 32.182857 30.976 38.619429 8.704 9.691429 15.725714 14.555429 20.992 14.555429 1.097143 0.146286 1.718857 0.841143 1.718857 2.157714v3.401143z m68.900571-64a21.321143 21.321143 0 0 0-4.388571-13.824 14.884571 14.884571 0 0 0-12.288-5.449143 20.150857 20.150857 0 0 0-15.213714 6.546286 31.926857 31.926857 0 0 0-7.899429 17.664h37.888c1.28 0 1.901714-1.645714 1.901714-4.937143z m18.212572 4.059428c0 2.852571-0.365714 4.827429-1.170286 5.888-0.804571 1.097143-2.121143 1.609143-3.986286 1.609143h-54.125714l-0.219428 4.717714c0 14.994286 3.766857 25.892571 11.337142 32.731429a28.233143 28.233143 0 0 0 19.492572 7.314286 20.809143 20.809143 0 0 0 13.056-4.315429l8.777143-9.618286 3.657143 2.121143 0.621714 1.097143c0 3.84-2.706286 8.265143-8.155429 13.275429a36.571429 36.571429 0 0 1-25.673143 9.618285c-11.849143 0-21.504-4.096-29.001142-12.288-7.497143-8.228571-11.264-18.834286-11.264-31.817142 0-13.970286 4.169143-25.892571 12.434285-35.730286 8.265143-9.874286 18.541714-14.774857 30.829715-14.774857a34.011429 34.011429 0 0 1 23.954285 8.667428 28.050286 28.050286 0 0 1 9.435429 21.504z m111.542857-22.893714c0 1.133714-0.987429 1.901714-2.925714 2.230857a8.155429 8.155429 0 0 0-4.388572 2.048c-2.011429 2.011429-5.376 7.753143-10.057143 17.188572l-5.12 10.605714a959.634286 959.634286 0 0 0-10.752 23.771428l-13.897142 32.365715c-4.973714 12.251429-9.874286 21.028571-14.738286 26.331428-8.118857 8.96-18.761143 13.458286-31.890286 13.458286l-5.376-0.219429-3.218286-0.658285a54.381714 54.381714 0 0 1-2.121142-0.621715l0.438857-9.398857c0.146286-4.864 0.219429-9.801143 0.219428-14.774857 0-0.987429 0.402286-1.499429 1.28-1.499428h2.998857c0.548571 0 1.462857 2.486857 2.779429 7.497142 1.28 4.973714 4.498286 7.497143 9.618286 7.497143a26.331429 26.331429 0 0 0 16.493714-4.937143c5.412571-4.132571 10.569143-11.556571 15.396571-22.272l-26.989714-61.586285a293.632 293.632 0 0 0-2.121143-4.571429 59.648 59.648 0 0 0-10.057143-15.835428 17.408 17.408 0 0 0-4.717714-3.657143l-2.011428-0.621715-2.267429-0.219428c-1.097143 0-1.682286-0.402286-1.682286-1.28v-2.779429c0-1.426286 0.731429-2.121143 2.121143-2.121143h42.422857c1.243429 0 1.901714 0.475429 1.901715 1.462858v3.218285c0 1.024-0.658286 1.499429-1.938286 1.499429a21.650286 21.650286 0 0 0-8.228572 1.206857c-1.792 0.768-2.669714 2.377143-2.669714 4.790857 0 0.658286 0.768 2.998857 2.377143 6.948572l14.957714 35.657142 7.058286 17.773715 16.128-37.814857c2.413714-5.741714 4.132571-9.910857 5.156571-12.617143l2.011429-5.485715a18.468571 18.468571 0 0 0 1.097143-4.681142c0-3.84-3.913143-5.778286-11.776-5.778286-1.828571 0-2.779429-0.731429-2.779429-2.121143 0-2.706286 0.512-4.059429 1.499429-4.059429h34.011428c1.170286 0 1.755429 0.621714 1.755429 1.901715v2.157714zM1328.859429 855.588571c0-9.398857-3.145143-15.981714-9.435429-19.675428-5.010286-2.998857-12.544-4.498286-22.674286-4.498286l-11.593143 0.219429v50.505143c12.873143 0 22.345143-1.206857 28.489143-3.657143 10.130286-3.986286 15.213714-11.629714 15.213715-22.893715z m39.789714 93.330286c0 1.28-0.731429 1.938286-2.121143 1.938286h-26.331429c-0.731429 0-1.572571-0.804571-2.486857-2.413714l-0.950857-1.865143a203.190857 203.190857 0 0 0-11.776-22.272c-5.851429-9.984-12.470857-20.48-19.894857-31.451429l-2.998857-4.278857-16.932572 0.621714v28.050286c0 14.409143 0.804571 22.564571 2.377143 24.393143 1.572571 1.28 6.144 1.938286 13.677715 1.938286 2.56 0 3.876571 0.438857 3.876571 1.28v4.498285c0 0.987429-0.585143 1.499429-1.718857 1.499429h-52.662857c-0.987429 0-1.499429-0.512-1.499429-1.499429v-3.657143c0-1.426286 1.206857-2.121143 3.657143-2.121142 3.108571 0 5.668571-0.109714 7.570286-0.329143 1.938286-0.219429 3.291429-0.731429 4.096-1.462857 0.768-0.804571 1.389714-3.693714 1.828571-8.704 0.292571-3.730286 0.512-8.521143 0.585143-14.372572v-59.245714c0-14.153143-0.475429-22.381714-1.462857-24.758857-0.804571-1.865143-3.328-2.998857-7.606857-3.364572l-7.058286-0.256a3.803429 3.803429 0 0 1-0.731429-0.109714c-0.585143-0.292571-0.877714-0.914286-0.877714-1.938286v-3.657143c0.731429-0.548571 1.28-0.841143 1.718857-0.841142h60.16c11.410286 0 20.699429 2.779429 27.794286 8.374857a26.404571 26.404571 0 0 1 10.715429 21.833143c0 14.848-9.618286 25.161143-28.891429 31.012571l3.876571 6.217143 9.764572 14.921143 8.411428 12.507428 9.069715 12.763429c3.145143 4.278857 5.485714 7.241143 6.985143 8.850286 0.475429 0.365714 1.462857 0.841143 2.925714 1.353142l2.56 0.877715c2.925714 0.950857 4.388571 1.682286 4.388571 2.267428v3.401143z m67.876571-63.780571a21.321143 21.321143 0 0 0-4.388571-13.824 14.884571 14.884571 0 0 0-12.324572-5.449143 20.150857 20.150857 0 0 0-15.177142 6.546286 31.926857 31.926857 0 0 0-7.936 17.664h37.888c1.28 0 1.938286-1.645714 1.938285-4.937143z m18.212572 4.059428c0 2.852571-0.402286 4.827429-1.206857 5.888-0.768 1.097143-2.084571 1.609143-3.949715 1.609143h-54.125714l-0.256 4.717714c0 14.994286 3.803429 25.892571 11.337143 32.731429a28.233143 28.233143 0 0 0 19.492571 7.314286 20.809143 20.809143 0 0 0 13.056-4.315429l8.777143-9.618286 3.657143 2.121143 0.621714 1.097143c0 3.84-2.706286 8.265143-8.118857 13.275429a36.571429 36.571429 0 0 1-25.709714 9.618285c-11.812571 0-21.504-4.096-29.001143-12.288-7.497143-8.228571-11.227429-18.834286-11.227429-31.817142 0-13.970286 4.132571-25.892571 12.434286-35.730286 8.265143-9.874286 18.541714-14.774857 30.793143-14.774857a34.011429 34.011429 0 0 1 23.990857 8.667428 28.050286 28.050286 0 0 1 9.435429 21.504z m78.116571 37.046857a23.332571 23.332571 0 0 1-10.496 19.894858c-6.948571 5.010286-16.347429 7.497143-28.050286 7.497142a62.537143 62.537143 0 0 1-25.673142-5.12v-22.052571l1.28-1.097143h3.657142c0.841143 0 1.28 0.365714 1.28 1.097143a19.748571 19.748571 0 0 0 6.4 15.396571c3.876571 3.437714 8.704 5.12 14.555429 5.12a20.589714 20.589714 0 0 0 13.714286-4.461714 14.409143 14.409143 0 0 0 5.339428-11.556571c0-6.363429-6.144-12.653714-18.432-18.870857l-4.900571-2.340572c-15.542857-6.985143-23.332571-15.725714-23.332572-26.112 0-7.314286 3.474286-13.238857 10.386286-17.883428 6.948571-4.644571 15.872-6.948571 26.88-6.948572 6.838857 0 14.994286 1.28 24.393143 3.84v20.333714c0 0.877714-0.548571 1.316571-1.718857 1.316572h-3.181714c-1.024 0-1.499429-0.731429-1.499429-2.157714a15.250286 15.250286 0 0 0-5.376-11.995429 19.053714 19.053714 0 0 0-13.056-4.717714 20.041143 20.041143 0 0 0-12.836571 4.096 12.8 12.8 0 0 0-5.12 10.459428c0 5.741714 5.997714 11.702857 18.066285 17.993143l4.827429 2.377143c15.250286 7.131429 22.893714 15.725714 22.893714 25.892571z m115.602286 22.893715c0 0.731429-0.621714 1.206857-1.938286 1.426285l-28.452571 1.353143c-1.28 0-1.938286-0.621714-1.938286-1.901714v-13.714286c-5.558857 5.412571-9.984 9.142857-13.275429 11.117715-6.692571 4.169143-14.043429 6.217143-22.052571 6.217142-7.424 0-13.165714-1.938286-17.334857-5.778285-5.266286-4.864-7.899429-12.8-7.899429-23.771429l0.182857-9.179428 1.097143-25.161143v-1.389715c0-9.435429-0.585143-15.067429-1.718857-16.932571-0.914286-1.462857-3.364571-2.377143-7.387428-2.669714l-3.291429-0.109715c-2.194286 0-3.254857-0.475429-3.254857-1.462857v-3.876571c0-0.475429 0.475429-0.804571 1.462857-0.950857l30.464-1.609143c0.402286 0 0.841143 0.475429 1.28 1.462857l-1.828571 29.110857c-0.365714 7.387429-0.548571 13.238857-0.548572 17.554286 0 11.446857 1.316571 19.785143 3.986286 25.088 2.633143 5.266286 7.460571 7.899429 14.445714 7.899428a25.6 25.6 0 0 0 14.884572-5.010285 28.964571 28.964571 0 0 0 10.386285-12.763429l0.109715-14.482286 0.512-18.688-0.182858-8.96a32 32 0 0 0-1.426285-9.874285c-1.097143-2.304-4.388571-3.437714-9.947429-3.437715-1.28 0-1.938286-0.621714-1.938286-1.901714v-3.218286c0-0.658286 0.768-1.060571 2.304-1.206857l8.374858-0.219428 6.473142-0.402286 10.898286-0.950857c1.28 0 1.938286 0.475429 1.938286 1.462857l-0.585143 14.701714-0.402286 17.152a524.653714 524.653714 0 0 0 0.146286 26.806857l0.292571 8.484572c0.365714 8.192 0.914286 12.653714 1.609143 13.385143 0.731429 0.731429 2.194286 1.097143 4.498286 1.28 2.267429 0.146286 4.754286 0.219429 7.497143 0.219428 1.718857 0 2.56 0.475429 2.56 1.462857v3.437715z m55.442286-0.219429c0 1.170286-0.731429 1.718857-2.121143 1.718857L1658.112 950.857143c-2.157714 0-3.218286-0.658286-3.218286-1.938286v-2.779428c0-0.950857 0.621714-1.572571 1.901715-1.828572l1.499428-0.073143c5.705143 0 9.362286-1.097143 10.934857-3.328 1.316571-1.828571 2.084571-6.436571 2.304-13.787428l0.182857-15.981715 0.950858-32-0.256-27.501714-0.182858-10.276571c-0.292571-14.08-1.097143-21.869714-2.377142-23.442286a5.12 5.12 0 0 0-1.828572-0.475429l-1.682286-0.182857a85.906286 85.906286 0 0 0-6.326857-0.219428c-1.974857 0-2.998857-0.768-2.998857-2.340572l0.109714-2.669714c0-0.256 0.073143-0.438857 0.109715-0.548571 0.182857-0.292571 0.658286-0.475429 1.462857-0.548572l28.525714-1.572571c1.426286 0 2.121143 0.475429 2.121143 1.462857l-1.097143 39.204571v59.099429l0.658286 34.669714 11.995428 0.438857c2.011429 0 2.998857 0.621714 2.998858 1.901715v2.779428z m67.218285-80.896c0 0.987429-0.475429 1.462857-1.462857 1.462857h-28.525714l-0.621714 51.382857c0 8.301714 0.804571 14.262857 2.377142 17.92 1.572571 3.620571 4.681143 5.449143 9.398858 5.449143 3.437714 0 6.217143-1.170286 8.338285-3.437714l5.778286-7.936 3.876571 1.499429 0.621715 0.877714c0 4.827429-2.925714 9.325714-8.777143 13.458286a27.867429 27.867429 0 0 1-16.676572 4.937142c-7.131429 0-12.544-1.974857-16.164571-5.851428a22.528 22.528 0 0 1-5.485714-15.981714l0.512-8.521143a1198.409143 1198.409143 0 0 0 1.206857-53.76h-13.897143c-1.133714 0-1.718857-0.585143-1.718857-1.718857v-4.059429c0-0.877714 0.438857-1.536 1.353143-2.011429l1.645714-0.585142a25.161143 25.161143 0 0 0 15.616-10.496l8.996571-16.676572 2.486858 0.109714a1.828571 1.828571 0 0 1 0.512 0.109715c0.438857 0.146286 0.658286 0.731429 0.658285 1.718857v26.331428h28.050286c1.28 0 1.901714 0.475429 1.901714 1.462858v4.315428z m74.276572 58.221714a23.332571 23.332571 0 0 1-10.459429 19.894858c-7.021714 5.010286-16.347429 7.497143-28.050286 7.497142a62.537143 62.537143 0 0 1-25.709714-5.12v-22.052571l1.316572-1.097143h3.620571c0.841143 0 1.28 0.365714 1.28 1.097143a19.748571 19.748571 0 0 0 6.436571 15.396571c3.84 3.437714 8.704 5.12 14.555429 5.12a20.589714 20.589714 0 0 0 13.677714-4.461714 14.409143 14.409143 0 0 0 5.376-11.556571c0-6.363429-6.144-12.653714-18.432-18.870857l-4.900571-2.340572c-15.579429-6.985143-23.332571-15.725714-23.332572-26.112 0-7.314286 3.437714-13.238857 10.386286-17.883428 6.912-4.644571 15.872-6.948571 26.843429-6.948572 6.875429 0 14.994286 1.28 24.429714 3.84v20.333714c0 0.877714-0.585143 1.316571-1.718857 1.316572h-3.218286c-0.987429 0-1.499429-0.731429-1.499428-2.157714a15.250286 15.250286 0 0 0-5.339429-11.995429 19.053714 19.053714 0 0 0-13.056-4.717714 20.041143 20.041143 0 0 0-12.873143 4.096 12.8 12.8 0 0 0-5.12 10.459428c0 5.741714 6.034286 11.702857 18.102857 17.993143l4.790857 2.377143c15.286857 7.131429 22.893714 15.725714 22.893715 25.892571z" fill="#999999" p-id="1269"></path></svg>