<svg xmlns="http://www.w3.org/2000/svg" xmlns:xlink="http://www.w3.org/1999/xlink" width="12px" height="16px" viewBox="0 0 12 16" version="1.1">
    <!-- Generator: Sketch 45.2 (43514) - http://www.bohemiancoding.com/sketch -->
    <title>开锁</title>
    <desc>Created with Sketch.</desc>
    <defs/>
    <g id="Page-1" stroke="none" stroke-width="1" fill="none" fill-rule="evenodd">
        <g id="导航入口和卡片" transform="translate(-711.000000, -809.000000)" fill="#BBBBBB">
            <g id="Page-1-Copy" transform="translate(711.000000, 808.000000)">
                <g id="Group-3" transform="translate(1.000000, 0.480200)">
                    <path d="M8.748,3.9951 C8.452,2.0771 6.854,0.5711 4.932,0.5211 C3.861,0.4961 2.83,0.8931 2.057,1.6471 C1.284,2.4001 0.859,3.4091 0.859,4.4891 L0.859,6.2681 L2.465,6.2681 L2.465,4.4891 C2.465,3.8461 2.719,3.2461 3.179,2.7971 C3.639,2.3491 4.271,2.1091 4.89,2.1271 C5.961,2.1551 6.862,2.9601 7.118,4.0221 L8.748,3.9951 Z" id="Fill-1"/>
                </g>
                <path d="M1.6455,16.4802 C0.7385,16.4802 0.0005,15.7422 0.0005,14.8352 L0.0005,8.1842 C0.0005,7.2772 0.7385,6.5392 1.6455,6.5392 L10.0105,6.5392 C10.9175,6.5392 11.6555,7.2772 11.6555,8.1842 L11.6555,14.8352 C11.6555,15.7422 10.9175,16.4802 10.0105,16.4802 L1.6455,16.4802 Z" id="Fill-4"/>
            </g>
        </g>
    </g>
</svg>