<svg xmlns="http://www.w3.org/2000/svg" xmlns:xlink="http://www.w3.org/1999/xlink" width="12px" height="15px" viewBox="0 0 12 15" version="1.1">
    <!-- Generator: Sketch 45.2 (43514) - http://www.bohemiancoding.com/sketch -->
    <title>锁上</title>
    <desc>Created with Sketch.</desc>
    <defs/>
    <g id="Page-1" stroke="none" stroke-width="1" fill="none" fill-rule="evenodd">
        <g id="导航入口和卡片" transform="translate(-661.000000, -811.000000)" fill="#BBBBBB">
            <g id="Group-5-Copy-2" transform="translate(661.000000, 811.000000)">
                <path d="M9.797,4.7472 L8.19,4.7472 L8.19,4.1152 C8.19,2.7652 7.159,1.6402 5.89,1.6072 C5.271,1.5892 4.639,1.8292 4.179,2.2772 C3.719,2.7262 3.465,3.3262 3.465,3.9692 L3.465,4.7472 L1.859,4.7472 L1.859,3.9692 C1.859,2.8892 2.284,1.8802 3.057,1.1272 C3.83,0.3732 4.861,-0.0228 5.932,0.0012 C8.063,0.0572 9.797,1.9022 9.797,4.1152 L9.797,4.7472 Z" id="Fill-1"/>
                <path d="M10.0105,14.4796 L1.6455,14.4796 C0.7385,14.4796 0.0005,13.7416 0.0005,12.8346 L0.0005,6.1836 C0.0005,5.2766 0.7385,4.5386 1.6455,4.5386 L10.0105,4.5386 C10.9175,4.5386 11.6555,5.2766 11.6555,6.1836 L11.6555,12.8346 C11.6555,13.7416 10.9175,14.4796 10.0105,14.4796" id="Fill-3"/>
            </g>
        </g>
    </g>
</svg>