<svg xmlns="http://www.w3.org/2000/svg" xmlns:xlink="http://www.w3.org/1999/xlink" width="18px" height="18px" viewBox="0 0 18 18" version="1.1">
    <!-- Generator: Sketch 52.5 (67469) - http://www.bohemiancoding.com/sketch -->
    <title>biaoqing</title>
    <desc>Created with Sketch.</desc>
    <g id="Page-1" stroke="none" stroke-width="1" fill="none" fill-rule="evenodd">
        <g id="Desktop-HD" transform="translate(-1698.000000, -449.000000)" fill="#FFE300">
            <g id="biaoqing" transform="translate(1698.000000, 449.000000)">
                <g id="图层_1">
                    <path d="M17.7,7.7 C17,8 16.3,8.1 15.5,8.2 C16.8,6.4 17.6,4.1 17.6,1.7 L17.6,1.2 C17.6,1.1 17.5,1 17.4,1.1 C15.9,2.8 13.9,3.9 11.7,4.3 C12,3.6 12.2,2.9 12.2,2.1 C12.2,1.4 12.1,0.8 11.9,0.2 C11.9,0.1 11.7,0.1 11.6,0.2 C10.8,2.1 9.1,3 7.2,3.4 C3.2,4.1 0.2,6.6 0.2,10.6 C0.2,14.6 3.3,17.8 7.2,17.8 C10.6,17.8 13.4,15.3 14,12 C15.8,11.3 17.2,9.8 17.8,7.9 C17.9,7.8 17.8,7.7 17.7,7.7 L17.7,7.7 Z M3.2,11.9 C3.2,11.9 3,12.5 2.4,12.5 C2.3,12.5 2.2,12.5 2,12.4 C1.3,12.2 1,10.9 1,10.8 L1,10.7 L1,10.7 L1,10.7 C1,10.7 1.5,11.2 2,11.4 C2.5,11.7 2.7,11.8 3.2,11.9 C3.2,11.8 3.2,11.8 3.2,11.9 L3.2,11.9 L3.2,11.9 Z M10.1,10.4 C10.1,10.4 9.9,10.9 9.6,11.5 C9.1,12.2 8.5,12.7 7.9,12.9 C7.7,13 7.5,13 7.2,13 C6,13 5.4,12.1 5.4,12.1 C5.4,12.1 5.4,12.1 5.4,12 L5.5,12 C6.3,11.9 6.4,11.9 7.2,11.6 C8.3,11.2 10,10.3 10.1,10.4 C10,10.3 10,10.3 10.1,10.4 C10,10.3 10,10.3 10.1,10.4 C10.1,10.3 10.1,10.3 10.1,10.4 L10.1,10.4 Z" id="Graphic"/>
                </g>
            </g>
        </g>
    </g>
</svg>