<svg xmlns="http://www.w3.org/2000/svg" xmlns:xlink="http://www.w3.org/1999/xlink" width="12px" height="15px" viewBox="0 0 12 15" version="1.1">
    <!-- Generator: Sketch 39.1 (31720) - http://www.bohemiancoding.com/sketch -->
    <title>参与者</title>
    <desc>Created with Sketch.</desc>
    <defs/>
    <g id="Page-1" stroke="none" stroke-width="1" fill="none" fill-rule="evenodd">
        <g id="Desktop-HD" transform="translate(-487.000000, -68.000000)" fill="#BBBBBB">
            <g id="参与者" transform="translate(487.000000, 68.000000)">
                <path d="M6,1.01351351 C4.41493132,1.01351351 3.14687638,2.22972973 3.14687638,3.75 C3.14687638,5.27027027 4.41493132,6.48648649 6,6.48648649 C7.58506868,6.48648649 8.85312362,5.27027027 8.85312362,3.75 C8.85312362,2.22972973 7.58506868,1.01351351 6,1.01351351 M6,7.5 C3.8865751,7.5 2.09016393,5.87837838 2.09016393,3.75 C2.09016393,1.72297297 3.78090385,0 6,0 C8.1134249,0 9.90983607,1.62162162 9.90983607,3.75 C9.90983607,5.77702703 8.1134249,7.5 6,7.5" id="Fill-1"/>
                <path d="M11.5081967,15 C11.2131148,15 11.0163934,14.7972973 11.0163934,14.4932432 L11.0163934,13.0743243 C11.0163934,10.9459459 9.3442623,9.32432432 7.37704918,9.32432432 L4.62295082,9.32432432 C2.55737705,9.32432432 0.983606557,11.0472973 0.983606557,13.0743243 L0.983606557,14.4932432 C0.983606557,14.7972973 0.786885246,15 0.491803279,15 C0.196721311,15 0,14.7972973 0,14.4932432 L0,13.0743243 C0,10.4391892 2.06557377,8.31081081 4.62295082,8.31081081 L7.37704918,8.31081081 C9.93442623,8.31081081 12,10.4391892 12,13.0743243 L12,14.4932432 C12,14.6959459 11.8032787,15 11.5081967,15" id="Fill-3"/>
            </g>
        </g>
    </g>
</svg>