<svg xmlns="http://www.w3.org/2000/svg" xmlns:xlink="http://www.w3.org/1999/xlink" width="15px" height="12px" viewBox="0 0 15 12" version="1.1">
    <!-- Generator: Sketch 39.1 (31720) - http://www.bohemiancoding.com/sketch -->
    <title>作品</title>
    <desc>Created with Sketch.</desc>
    <defs/>
    <g id="Page-1" stroke="none" stroke-width="1" fill="none" fill-rule="evenodd">
        <g id="Desktop-HD" transform="translate(-509.000000, -69.000000)" fill="#BBBBBB">
            <g id="作品" transform="translate(509.000000, 69.000000)">
                <path d="M2.48344371,1 C1.68874172,1 0.993377483,1.7 0.993377483,2.5 L0.993377483,9.6 C0.993377483,10.4 1.68874172,11.1 2.48344371,11.1 L12.5165563,11.1 C13.3112583,11.1 14.0066225,10.4 14.0066225,9.6 L14.0066225,2.5 C14.0066225,1.7 13.3112583,1 12.5165563,1 L2.48344371,1 Z M12.5165563,12 L2.48344371,12 C1.09271523,12 0,10.9 0,9.5 L0,2.5 C0,1.1 1.09271523,0 2.48344371,0 L12.5165563,0 C13.9072848,0 15,1.1 15,2.5 L15,9.6 C15,10.9 13.9072848,12 12.5165563,12 L12.5165563,12 Z" id="Fill-1"/>
                <path d="M14.1,11.3 C14,11.3 13.8,11.3 13.7,11.2 L9.4,6.9 L7.9,8.4 C7.8,8.5 7.7,8.5 7.5,8.5 C7.4,8.5 7.2,8.4 7.1,8.4 L4.3,5.5 L1,8.2 C0.8,8.4 0.5,8.3 0.3,8.1 C0.1,8 0.2,7.7 0.4,7.5 L4.1,4.5 C4.3,4.3 4.6,4.4 4.8,4.5 L7.5,7.4 L9,5.9 C9.2,5.7 9.5,5.7 9.7,5.9 L14.3,10.5 C14.5,10.7 14.5,11 14.3,11.2 C14.3,11.3 14.2,11.3 14.1,11.3" id="Fill-3"/>
                <path d="M10.3,2.6 C9.9,2.6 9.5,3 9.5,3.5 C9.5,4 9.9,4.3 10.3,4.3 C10.7,4.3 11.1,3.9 11.1,3.5 C11.1,3.1 10.8,2.6 10.3,2.6 M10.3,5.3 C9.3,5.3 8.5,4.5 8.5,3.5 C8.5,2.5 9.3,1.7 10.3,1.7 C11.3,1.7 12.1,2.5 12.1,3.5 C12.1,4.5 11.4,5.3 10.3,5.3" id="Fill-5"/>
            </g>
        </g>
    </g>
</svg>