<svg xmlns="http://www.w3.org/2000/svg" id="图层_1" data-name="图层 1" viewBox="0 0 13.5 12.3"><defs><style>.cls-1{fill:#bbb;}.cls-2,.cls-3{fill:none;stroke:#bbb;}.cls-2{stroke-miterlimit:10;}.cls-3{stroke-linecap:round;stroke-linejoin:round;}</style></defs><title>资源 3</title><g id="图层_2" data-name="图层 2"><g id="图层_1-2" data-name="图层 1-2"><rect id="_矩形_" data-name=" 矩形 " class="cls-1" x="3.95" y="11.48" width="5.59" height="0.82" rx="0.37" ry="0.37"/><g id="_编组_" data-name=" 编组 "><path id="_路径_" data-name=" 路径 " class="cls-2" d="M9.62,6.2a5.23,5.23,0,0,1-1.3,1.61,2.53,2.53,0,0,1-1.57.59,2.53,2.53,0,0,1-1.57-.59A5.21,5.21,0,0,1,3.87,6.2,9.41,9.41,0,0,1,3,3.83,12.43,12.43,0,0,1,2.66,1V.54h8.15V1a11.41,11.41,0,0,1-.33,2.87A10.93,10.93,0,0,1,9.62,6.2Z" transform="translate(0 -0.04)"/><g id="_编组_2" data-name=" 编组 2"><path id="_路径_2" data-name=" 路径 2" class="cls-3" d="M2.58,2.1H.5S.39,5.91,3.41,5.91" transform="translate(0 -0.04)"/><path id="_路径_3" data-name=" 路径 3" class="cls-3" d="M10.9,2.1H13s.12,3.81-2.91,3.81" transform="translate(0 -0.04)"/></g><line id="_路径_4" data-name=" 路径 4" class="cls-2" x1="6.74" y1="8.37" x2="6.74" y2="11.89"/></g></g></g></svg>