<svg xmlns="http://www.w3.org/2000/svg" xmlns:xlink="http://www.w3.org/1999/xlink" version="1.1" id="图层_1" x="0px" y="0px" viewBox="0 0 18 18" style="enable-background:new 0 0 18 18;" xml:space="preserve">
<style type="text/css">
	.st0{fill:#F4523B;}
	.st1{fill:#FFFFFF;}
</style>
<g id="XMLID_46_">
	<path id="XMLID_114_" class="st0" d="M18,9c0,5-4,9-9,9s-9-4-9-9s4-9,9-9c0.3,0,0.7,0,1,0.1C14.5,0.6,18,4.4,18,9z"/>
	<path id="XMLID_115_" class="st1" d="M9,11.4L9,11.4c-0.6,0-1-0.4-1-1v-6c0-0.5,0.4-1,1-1h0c0.6,0,1,0.4,1,1v6   C10,11,9.6,11.4,9,11.4z"/>
</g>
<circle id="XMLID_116_" class="st1" cx="8.9" cy="14.2" r="1"/>
</svg>