<svg xmlns="http://www.w3.org/2000/svg" xmlns:xlink="http://www.w3.org/1999/xlink" width="20px" height="20px" viewBox="0 0 20 20" version="1.1">
    <!-- Generator: Sketch 56.3 (81716) - https://sketch.com -->
    <title>icon/人气</title>
    <desc>Created with Sketch.</desc>
    <g id="icon/人气" stroke="none" stroke-width="1" fill="none" fill-rule="evenodd">
        <path d="M4.53019313,15.7587296 C4.53048389,15.7590638 4.53077636,15.7593957 4.53107052,15.7597253 C4.53077672,15.7593876 4.53048296,15.75905 4.53018924,15.7587124 Z M4.22884086,15.4026836 C3.24539358,14.2038033 2.90880173,13.36961 3.1110698,12.3208964 C3.31420673,11.2502583 3.97388077,10.3942475 4.88447569,9.74001442 L5.50858662,9.29161082 L5.66566242,10.043879 C5.86394703,10.9935047 6.09994725,11.4776748 6.99908001,12.3176864 C7.31861171,12.6166255 7.52499068,12.961789 7.62032567,13.3394605 C7.77871959,13.9669413 7.62640304,14.601063 7.28913353,15.2103018 C7.22208149,15.3314236 7.187036,15.3939719 7.14026504,15.4638909 C7.9772248,15.332585 9.0972465,14.7409197 9.91686767,13.9542404 C10.6770027,13.212102 11.1412521,12.2860579 11.1412521,11.2071397 C11.1412521,9.53342778 9.98348443,7.72482556 9.2659358,7.1790963 C9.25946997,7.18934141 9.25286346,7.19982271 9.24611571,7.210541 C9.24279423,7.21581738 9.24279423,7.21581738 9.23947024,7.22109934 C8.98887963,7.61932749 8.97921424,7.63441065 8.92288869,7.70392055 L8.20491557,8.58995256 L8.03969367,7.46157326 C7.88821535,6.42705546 7.17246877,5.31652386 6.11288103,4.29690814 C5.7049829,3.90439761 5.27033449,3.55158413 4.88723872,3.29074475 C4.62656734,5.086018 3.8968219,6.49085464 2.58018461,7.60732209 C1.08772473,8.88635407 0.5,9.79236652 0.5,11.2071397 C0.5,12.7925593 1.26011333,13.9195888 2.55847003,14.698437 C3.01954221,14.9750214 3.51714282,15.1864632 4.01594749,15.3400468 C4.09318665,15.3638289 4.16438742,15.3846008 4.22884086,15.4026836 Z M4.47975025,3.04172872 C4.47956717,3.04163562 4.47938421,3.04154263 4.47920136,3.04144973 C4.47948778,3.04159525 4.47970596,3.04171549 4.4798817,3.04180712 Z" id="路径" stroke="#C7C7C7"/>
    </g>
</svg>