<svg xmlns="http://www.w3.org/2000/svg" xmlns:xlink="http://www.w3.org/1999/xlink" width="20px" height="20px" viewBox="0 0 20 20" version="1.1">
    <!-- Generator: Sketch 56.3 (81716) - https://sketch.com -->
    <title>icon/粉丝数</title>
    <desc>Created with Sketch.</desc>
    <g id="icon/粉丝数" stroke="none" stroke-width="1" fill="none" fill-rule="evenodd">
        <rect id="矩形-2" x="0" y="2" width="16" height="16"/>
        <g id="icon/参与人数" transform="translate(0.000000, 3.000000)" fill="#C7C7C7" fill-rule="nonzero">
            <g id="canyuzhe">
                <path d="M3.50368468,6.63996184 C2.64627447,5.96153259 2.09016393,4.93420401 2.09016393,3.75 C2.09016393,1.72297297 3.78090385,0 6,0 C8.1134249,0 9.90983607,1.62162162 9.90983607,3.75 C9.90983607,5.7464953 8.16713358,7.44802708 6.09527842,7.49883216 C6.06439131,7.50837607 6.03243597,7.51351382 5.99974865,7.51351382 C5.69379358,7.51351382 5.23486097,7.51351382 4.62295082,7.51351382 C2.55737705,7.51351382 0.983606557,9.2364868 0.983606557,11.2635138 L0.983606557,12.6824327 C0.983606557,12.9864868 0.786885246,13.1891895 0.491803279,13.1891895 C0.196721311,13.1891895 2.53574939e-13,12.9864868 2.53574939e-13,12.6824327 L2.53574939e-13,11.2635138 C2.53574939e-13,9.0262225 1.48894964,7.15422183 3.50368468,6.63996184 Z M6,1.01351351 C4.41493132,1.01351351 3.14687638,2.22972973 3.14687638,3.75 C3.14687638,5.27027027 4.41493132,6.48648649 6,6.48648649 C7.58506868,6.48648649 8.85312362,5.27027027 8.85312362,3.75 C8.85312362,2.22972973 7.58506868,1.01351351 6,1.01351351 Z" id="形状结合"/>
            </g>
            <path d="M5.61422272,9.068528 C5.06589421,10.7948108 6.52327403,12.5546546 8.86107182,13.4658632 L9.05179517,13.5402019 L9.23989366,13.4594517 C11.5484471,12.4683962 12.8834725,10.7286182 12.4046765,9.08041184 C11.9693114,7.58171196 10.2220467,7.13558456 9.04617108,7.90173146 C7.8534166,7.09198057 6.1165636,7.48702637 5.61422272,9.068528 Z M6.56729885,9.37125871 C6.87795952,8.39321697 8.01549279,8.22675261 8.68968006,8.89872913 L9.04265234,9.25054397 L9.39562463,8.89872913 C10.027964,8.26846326 11.1868784,8.4729703 11.4443747,9.35937487 C11.7407671,10.3796758 10.8121766,11.6369719 9.03363351,12.456803 C7.24265775,11.7008786 6.23104841,10.4298638 6.56729885,9.37125871 Z" id="椭圆形"/>
        </g>
    </g>
</svg>