<svg xmlns="http://www.w3.org/2000/svg" xmlns:xlink="http://www.w3.org/1999/xlink" width="20px" height="20px" viewBox="0 0 20 20" version="1.1">
    <!-- Generator: Sketch 56.3 (81716) - https://sketch.com -->
    <title>icon/作品数</title>
    <desc>Created with Sketch.</desc>
    <g id="icon/作品数" stroke="none" stroke-width="1" fill="none" fill-rule="evenodd">
        <g id="icon/收藏夹作品数" transform="translate(0.000000, 4.000000)" fill="#C7C7C7" fill-rule="nonzero">
            <g id="card-zuopin">
                <path d="M1,8.50000164 L1,10 C1,10.5522847 1.44771525,11 2,11 L12,11 C12.3766069,11 12.7045893,10.7918136 12.8751408,10.4842471 C12.7934533,10.4632656 12.7159744,10.4213064 12.6512119,10.3582553 L9.51494111,7.30486383 L7.34398774,9.36286696 C7.13132721,9.5644632 6.79167626,9.54080196 6.60902195,9.31166675 L3.78086093,5.76381028 L1.36483447,8.34190029 C1.26643231,8.44690312 1.13338045,8.49997482 1,8.50000164 Z M1,7.26879267 L3.44657992,4.65809971 C3.65504841,4.43564746 4.0123584,4.44994035 4.20239245,4.68833325 L7.0513888,8.26232712 L9.1755687,6.24866393 C9.37031658,6.06404839 9.67607164,6.06608372 9.8683445,6.25327556 L13,9.3021737 L13,2 C13,1.44771525 12.5522847,1 12,1 L2,1 C1.44771525,1 1,1.44771525 1,2 L1,7.26879267 Z M2,0 L12,0 C13.1045695,0 14,0.8954305 14,2 L14,10 C14,11.1045695 13.1045695,12 12,12 L2,12 C0.8954305,12 0,11.1045695 0,10 L0,2 C0,0.8954305 0.8954305,0 2,0 Z M11,5 C10.4477153,5 10,4.55228475 10,4 C10,3.44771525 10.4477153,3 11,3 C11.5522847,3 12,3.44771525 12,4 C12,4.55228475 11.5522847,5 11,5 Z" id="形状结合"/>
            </g>
        </g>
    </g>
</svg>