<svg xmlns="http://www.w3.org/2000/svg" xmlns:xlink="http://www.w3.org/1999/xlink" width="240px" height="152px" viewBox="0 0 240 152" version="1.1">
    <!-- Generator: Sketch 47.1 (45422) - http://www.bohemiancoding.com/sketch -->
    <title>已提交小画</title>
    <desc>Created with Sketch.</desc>
    <defs>
        <radialGradient cx="50%" cy="51.7821742%" fx="50%" fy="51.7821742%" r="47.1627466%" gradientTransform="translate(0.500000,0.517822),rotate(90.000000),scale(1.000000,0.987778),translate(-0.500000,-0.517822)" id="radialGradient-1">
            <stop stop-color="#FFE985" offset="0%"/>
            <stop stop-color="#FFFFFF" offset="100%"/>
        </radialGradient>
        <circle id="path-2" cx="50" cy="50" r="50"/>
        <filter x="-14.0%" y="-10.0%" width="128.0%" height="128.0%" filterUnits="objectBoundingBox" id="filter-3">
            <feOffset dx="0" dy="4" in="SourceAlpha" result="shadowOffsetOuter1"/>
            <feGaussianBlur stdDeviation="4" in="shadowOffsetOuter1" result="shadowBlurOuter1"/>
            <feColorMatrix values="0 0 0 0 0.831372549   0 0 0 0 0.721568627   0 0 0 0 0.239215686  0 0 0 0.12 0" type="matrix" in="shadowBlurOuter1"/>
        </filter>
        <rect id="path-4" x="43" y="24" width="10" height="12" rx="2"/>
    </defs>
    <g id="最终" stroke="none" stroke-width="1" fill="none" fill-rule="evenodd">
        <g id="已提交小画">
            <g id="Group-10" transform="translate(79.000000, 40.000000)">
                <g id="Oval">
                    <use fill="black" fill-opacity="1" filter="url(#filter-3)" xlink:href="#path-2"/>
                    <use fill="url(#radialGradient-1)" fill-rule="evenodd" xlink:href="#path-2"/>
                </g>
                <g id="Group-9" transform="translate(10.000000, 28.000000)">
                    <g id="Group-5" transform="translate(37.500000, 24.000000) rotate(-5.000000) translate(-37.500000, -24.000000) translate(2.000000, 4.000000)">
                        <g id="Group-4">
                            <g id="Group-2" transform="translate(11.000000, 0.000000)">
                                <rect id="Rectangle-4" fill="#FFD100" x="0" y="0" width="60" height="40" rx="4"/>
                                <rect id="Rectangle-5-Copy" stroke-opacity="0.261237545" stroke="#AF9419" transform="translate(50.503908, 29.412947) rotate(-5.000000) translate(-50.503908, -29.412947) " x="46.0039079" y="23.9129469" width="9" height="11" rx="2"/>
                                <g id="Rectangle-5">
                                    <use fill="#DCA000" fill-rule="evenodd" xlink:href="#path-4"/>
                                    <rect stroke="#FFFFFF" stroke-width="1" x="43.5" y="24.5" width="9" height="11" rx="2"/>
                                </g>
                                <path d="M60,4.33300781 L60,4 C60,1.790861 58.209139,-4.05812251e-16 56,0 L4,0 L4,0 C1.790861,4.05812251e-16 -2.705415e-16,1.790861 0,4 L0,4 L0,4.33300781 L2.84217094e-14,4.66601563 L28.9307206,22.9690285 C29.5837197,23.3821482 30.4162803,23.3821482 31.0692794,22.9690285 L31.0692794,22.9690285 L60,4.66601563 L60,4.33300781 Z" id="Combined-Shape" fill="#FFE982"/>
                            </g>
                            <rect id="Rectangle-6" fill="#FFD100" x="0" y="8" width="16" height="4" rx="2"/>
                            <rect id="Rectangle-7" fill="#FFFFFF" x="6" y="4" width="12" height="4" rx="2"/>
                            <rect id="Rectangle-7-Copy" fill="#FFE982" x="9" y="0" width="12" height="4" rx="2"/>
                            <rect id="Rectangle-7-Copy-2" fill="#FFE982" x="3" y="0" width="4" height="4" rx="2"/>
                        </g>
                        <g id="Group-3" opacity="0.442425272" transform="translate(21.000000, 15.000000)" stroke="#EAC107">
                            <path d="M1,4.00000272 C2.6935619,3.99739469 2.80566406,5.87158475 4.78930664,5.87158475 C6.77294922,5.87158475 6.96142578,4.00000272 8.94042969,4.00000272 C10.9194336,4.00000272 11.4008789,5.87158475 13.144043,5.87158475" id="Path-2" stroke-linecap="round" stroke-linejoin="round"/>
                            <path d="M1,2.00000272 C2.6935619,1.99739469 2.80566406,3.87158475 4.78930664,3.87158475 C6.77294922,3.87158475 6.96142578,2.00000272 8.94042969,2.00000272 C10.9194336,2.00000272 11.4008789,3.87158475 13.144043,3.87158475" id="Path-2-Copy-2" stroke-linecap="round" stroke-linejoin="round"/>
                            <path d="M0.977294922,6.00000272 C2.67085682,5.99739469 2.79736328,7.87158475 4.78100586,7.87158475 C6.76464844,7.87158475 6.953125,6.00000272 8.93212891,6.00000272 C10.9111328,6.00000272 11.3925781,7.87158475 13.1357422,7.87158475" id="Path-2-Copy" stroke-linecap="round" stroke-linejoin="round"/>
                            <circle id="Oval-4" cx="15" cy="5" r="4.5"/>
                        </g>
                    </g>
                </g>
            </g>
            <g id="星星-copy">
                <path d="M196.958367,67.3900621 L193.407338,65.8319897 C193.063106,65.6809525 192.906492,65.2794577 193.057529,64.9352262 C193.177097,64.6627164 193.459836,64.499477 193.75562,64.5321829 L197.609938,64.9583672 L199.16801,61.4073381 C199.319048,61.0631065 199.720542,60.9064915 200.064774,61.0575288 C200.337284,61.1770969 200.500523,61.4598358 200.467817,61.7556203 L200.041633,65.6099379 L203.592662,67.1680103 C203.936894,67.3190475 204.093508,67.7205423 203.942471,68.0647738 C203.822903,68.3372836 203.540164,68.500523 203.24438,68.4678171 L199.390062,68.0416328 L197.83199,71.5926619 C197.680952,71.9368935 197.279458,72.0935085 196.935226,71.9424712 C196.662716,71.8229031 196.499477,71.5401642 196.532183,71.2443797 L196.958367,67.3900621 Z" id="Star" fill-opacity="0.316830842" fill="#FFEE1D"/>
                <path d="M183.318219,12.9709769 L179.444369,11.2712615 C179.068843,11.1064936 178.897991,10.6684994 179.062759,10.292974 C179.193197,9.99569064 179.501639,9.81761133 179.824313,9.85329042 L184.029023,10.3182187 L185.728738,6.44436879 C185.893506,6.06884343 186.331501,5.89799077 186.707026,6.06275869 C187.004309,6.19319666 187.182389,6.50163908 187.14671,6.824313 L186.681781,11.0290231 L190.555631,12.7287385 C190.931157,12.8935064 191.102009,13.3315006 190.937241,13.707026 C190.806803,14.0043094 190.498361,14.1823887 190.175687,14.1467096 L185.970977,13.6817813 L184.271262,17.5556312 C184.106494,17.9311566 183.668499,18.1020092 183.292974,17.9372413 C182.995691,17.8068033 182.817611,17.4983609 182.85329,17.175687 L183.318219,12.9709769 Z" id="Star-Copy" fill-opacity="0.289458786" fill="#FFEE1D" transform="translate(185.000000, 12.000000) rotate(-26.000000) translate(-185.000000, -12.000000) "/>
                <path d="M168.257186,46.5835646 L166.320261,45.733707 C166.132498,45.651323 166.047072,45.4323259 166.129456,45.2445632 C166.194675,45.0959215 166.348896,45.0068819 166.510233,45.0247214 L168.612588,45.2571856 L169.462445,43.3202606 C169.544829,43.1324979 169.763827,43.0470716 169.951589,43.1294556 C170.100231,43.1946745 170.189271,43.3488957 170.171431,43.5102327 L169.938967,45.6125878 L171.875892,46.4624454 C172.063654,46.5448294 172.149081,46.7638265 172.066697,46.9515892 C172.001478,47.1002309 171.847257,47.1892705 171.68592,47.171431 L169.583565,46.9389669 L168.733707,48.8758918 C168.651323,49.0636545 168.432326,49.1490808 168.244563,49.0666969 C168.095922,49.0014779 168.006882,48.8472567 168.024721,48.6859197 L168.257186,46.5835646 Z" id="Star-Copy-2" fill-opacity="0.427734375" fill="#FFEE1D" transform="translate(169.098076, 46.098076) rotate(-30.000000) translate(-169.098076, -46.098076) "/>
                <path d="M168.257186,83.5835646 L166.320261,82.733707 C166.132498,82.651323 166.047072,82.4323259 166.129456,82.2445632 C166.194675,82.0959215 166.348896,82.0068819 166.510233,82.0247214 L168.612588,82.2571856 L169.462445,80.3202606 C169.544829,80.1324979 169.763827,80.0470716 169.951589,80.1294556 C170.100231,80.1946745 170.189271,80.3488957 170.171431,80.5102327 L169.938967,82.6125878 L171.875892,83.4624454 C172.063654,83.5448294 172.149081,83.7638265 172.066697,83.9515892 C172.001478,84.1002309 171.847257,84.1892705 171.68592,84.171431 L169.583565,83.9389669 L168.733707,85.8758918 C168.651323,86.0636545 168.432326,86.1490808 168.244563,86.0666969 C168.095922,86.0014779 168.006882,85.8472567 168.024721,85.6859197 L168.257186,83.5835646 Z" id="Star-Copy-14" fill-opacity="0.525164176" fill="#FFFC31" transform="translate(169.098076, 83.098076) rotate(-30.000000) translate(-169.098076, -83.098076) "/>
                <path d="M227.257186,24.5835646 L225.320261,23.733707 C225.132498,23.651323 225.047072,23.4323259 225.129456,23.2445632 C225.194675,23.0959215 225.348896,23.0068819 225.510233,23.0247214 L227.612588,23.2571856 L228.462445,21.3202606 C228.544829,21.1324979 228.763827,21.0470716 228.951589,21.1294556 C229.100231,21.1946745 229.189271,21.3488957 229.171431,21.5102327 L228.938967,23.6125878 L230.875892,24.4624454 C231.063654,24.5448294 231.149081,24.7638265 231.066697,24.9515892 C231.001478,25.1002309 230.847257,25.1892705 230.68592,25.171431 L228.583565,24.9389669 L227.733707,26.8758918 C227.651323,27.0636545 227.432326,27.1490808 227.244563,27.0666969 C227.095922,27.0014779 227.006882,26.8472567 227.024721,26.6859197 L227.257186,24.5835646 Z" id="Star-Copy-10" fill-opacity="0.506878397" fill="#FFEE1D" transform="translate(228.098076, 24.098076) rotate(-30.000000) translate(-228.098076, -24.098076) "/>
                <path d="M235.257186,79.5835646 L233.320261,78.733707 C233.132498,78.651323 233.047072,78.4323259 233.129456,78.2445632 C233.194675,78.0959215 233.348896,78.0068819 233.510233,78.0247214 L235.612588,78.2571856 L236.462445,76.3202606 C236.544829,76.1324979 236.763827,76.0470716 236.951589,76.1294556 C237.100231,76.1946745 237.189271,76.3488957 237.171431,76.5102327 L236.938967,78.6125878 L238.875892,79.4624454 C239.063654,79.5448294 239.149081,79.7638265 239.066697,79.9515892 C239.001478,80.1002309 238.847257,80.1892705 238.68592,80.171431 L236.583565,79.9389669 L235.733707,81.8758918 C235.651323,82.0636545 235.432326,82.1490808 235.244563,82.0666969 C235.095922,82.0014779 235.006882,81.8472567 235.024721,81.6859197 L235.257186,79.5835646 Z" id="Star-Copy-11" fill-opacity="0.29296875" fill="#F8E71C" transform="translate(236.098076, 79.098076) rotate(-30.000000) translate(-236.098076, -79.098076) "/>
                <path d="M184.257186,88.5835646 L182.320261,87.733707 C182.132498,87.651323 182.047072,87.4323259 182.129456,87.2445632 C182.194675,87.0959215 182.348896,87.0068819 182.510233,87.0247214 L184.612588,87.2571856 L185.462445,85.3202606 C185.544829,85.1324979 185.763827,85.0470716 185.951589,85.1294556 C186.100231,85.1946745 186.189271,85.3488957 186.171431,85.5102327 L185.938967,87.6125878 L187.875892,88.4624454 C188.063654,88.5448294 188.149081,88.7638265 188.066697,88.9515892 C188.001478,89.1002309 187.847257,89.1892705 187.68592,89.171431 L185.583565,88.9389669 L184.733707,90.8758918 C184.651323,91.0636545 184.432326,91.1490808 184.244563,91.0666969 C184.095922,91.0014779 184.006882,90.8472567 184.024721,90.6859197 L184.257186,88.5835646 Z" id="Star-Copy-17" fill-opacity="0.694293478" fill="#F8E71C" transform="translate(185.098076, 88.098076) rotate(-30.000000) translate(-185.098076, -88.098076) "/>
                <path d="M72.2571856,62.5835646 L70.3202606,61.733707 C70.1324979,61.651323 70.0470716,61.4323259 70.1294556,61.2445632 C70.1946745,61.0959215 70.3488957,61.0068819 70.5102327,61.0247214 L72.6125878,61.2571856 L73.4624454,59.3202606 C73.5448294,59.1324979 73.7638265,59.0470716 73.9515892,59.1294556 C74.1002309,59.1946745 74.1892705,59.3488957 74.171431,59.5102327 L73.9389669,61.6125878 L75.8758918,62.4624454 C76.0636545,62.5448294 76.1490808,62.7638265 76.0666969,62.9515892 C76.0014779,63.1002309 75.8472567,63.1892705 75.6859197,63.171431 L73.5835646,62.9389669 L72.733707,64.8758918 C72.651323,65.0636545 72.4323259,65.1490808 72.2445632,65.0666969 C72.0959215,65.0014779 72.0068819,64.8472567 72.0247214,64.6859197 L72.2571856,62.5835646 Z" id="Star-Copy-5" fill-opacity="0.506878397" fill="#FFEE1D" transform="translate(73.098076, 62.098076) rotate(-30.000000) translate(-73.098076, -62.098076) "/>
                <path d="M103.833344,4.15972305 L101.896419,3.30986538 C101.708656,3.22748142 101.62323,3.00848429 101.705614,2.82072162 C101.770833,2.67207993 101.925054,2.58304028 102.086391,2.60087982 L104.188746,2.83334397 L105.038604,0.896419007 C105.120988,0.708656327 105.339985,0.623229998 105.527748,0.705613961 C105.676389,0.770832942 105.765429,0.925054152 105.747589,1.08639111 L105.515125,3.18874618 L107.45205,4.03860385 C107.639813,4.12098781 107.725239,4.33998493 107.642855,4.52774761 C107.577636,4.67638929 107.423415,4.76542895 107.262078,4.74758941 L105.159723,4.51512525 L104.309865,6.45205022 C104.227481,6.6398129 104.008484,6.72523923 103.820722,6.64285527 C103.67208,6.57763629 103.58304,6.42341508 103.60088,6.26207811 L103.833344,4.15972305 Z" id="Star-Copy-3" fill-opacity="0.694293478" fill="#F8E71C" transform="translate(104.674235, 3.674235) rotate(-15.000000) translate(-104.674235, -3.674235) "/>
                <path d="M2.83334397,66.1597231 L0.896419007,65.3098654 C0.708656327,65.2274814 0.623229998,65.0084843 0.705613961,64.8207216 C0.770832942,64.6720799 0.925054152,64.5830403 1.08639111,64.6008798 L3.18874618,64.833344 L4.03860385,62.896419 C4.12098781,62.7086563 4.33998493,62.62323 4.52774761,62.705614 C4.67638929,62.7708329 4.76542895,62.9250542 4.74758941,63.0863911 L4.51512525,65.1887462 L6.45205022,66.0386038 C6.6398129,66.1209878 6.72523923,66.3399849 6.64285527,66.5277476 C6.57763629,66.6763893 6.42341508,66.765429 6.26207811,66.7475894 L4.15972305,66.5151253 L3.30986538,68.4520502 C3.22748142,68.6398129 3.00848429,68.7252392 2.82072162,68.6428553 C2.67207993,68.5776363 2.58304028,68.4234151 2.60087982,68.2620781 L2.83334397,66.1597231 Z" id="Star-Copy-6" fill-opacity="0.376726676" fill="#F8E71C" transform="translate(3.674235, 65.674235) rotate(-15.000000) translate(-3.674235, -65.674235) "/>
                <path d="M64.2571856,38.5835646 L62.3202606,37.733707 C62.1324979,37.651323 62.0470716,37.4323259 62.1294556,37.2445632 C62.1946745,37.0959215 62.3488957,37.0068819 62.5102327,37.0247214 L64.6125878,37.2571856 L65.4624454,35.3202606 C65.5448294,35.1324979 65.7638265,35.0470716 65.9515892,35.1294556 C66.1002309,35.1946745 66.1892705,35.3488957 66.171431,35.5102327 L65.9389669,37.6125878 L67.8758918,38.4624454 C68.0636545,38.5448294 68.1490808,38.7638265 68.0666969,38.9515892 C68.0014779,39.1002309 67.8472567,39.1892705 67.6859197,39.171431 L65.5835646,38.9389669 L64.733707,40.8758918 C64.651323,41.0636545 64.4323259,41.1490808 64.2445632,41.0666969 C64.0959215,41.0014779 64.0068819,40.8472567 64.0247214,40.6859197 L64.2571856,38.5835646 Z" id="Star-Copy-8" fill-opacity="0.345674819" fill="#F8E71C" transform="translate(65.098076, 38.098076) rotate(-60.000000) translate(-65.098076, -38.098076) "/>
                <path d="M108.257186,54.5835646 L106.320261,53.733707 C106.132498,53.651323 106.047072,53.4323259 106.129456,53.2445632 C106.194675,53.0959215 106.348896,53.0068819 106.510233,53.0247214 L108.612588,53.2571856 L109.462445,51.3202606 C109.544829,51.1324979 109.763827,51.0470716 109.951589,51.1294556 C110.100231,51.1946745 110.189271,51.3488957 110.171431,51.5102327 L109.938967,53.6125878 L111.875892,54.4624454 C112.063654,54.5448294 112.149081,54.7638265 112.066697,54.9515892 C112.001478,55.1002309 111.847257,55.1892705 111.68592,55.171431 L109.583565,54.9389669 L108.733707,56.8758918 C108.651323,57.0636545 108.432326,57.1490808 108.244563,57.0666969 C108.095922,57.0014779 108.006882,56.8472567 108.024721,56.6859197 L108.257186,54.5835646 Z" id="Star-Copy-13" fill-opacity="0.525164176" fill="#FFFC31" transform="translate(109.098076, 54.098076) rotate(-60.000000) translate(-109.098076, -54.098076) "/>
                <path d="M35.833344,12.1597231 L33.896419,11.3098654 C33.7086563,11.2274814 33.62323,11.0084843 33.705614,10.8207216 C33.7708329,10.6720799 33.9250542,10.5830403 34.0863911,10.6008798 L36.1887462,10.833344 L37.0386038,8.89641901 C37.1209878,8.70865633 37.3399849,8.62323 37.5277476,8.70561396 C37.6763893,8.77083294 37.765429,8.92505415 37.7475894,9.08639111 L37.5151253,11.1887462 L39.4520502,12.0386038 C39.6398129,12.1209878 39.7252392,12.3399849 39.6428553,12.5277476 C39.5776363,12.6763893 39.4234151,12.765429 39.2620781,12.7475894 L37.1597231,12.5151253 L36.3098654,14.4520502 C36.2274814,14.6398129 36.0084843,14.7252392 35.8207216,14.6428553 C35.6720799,14.5776363 35.5830403,14.4234151 35.6008798,14.2620781 L35.833344,12.1597231 Z" id="Star-Copy-9" fill-opacity="0.506878397" fill="#FFEE1D" transform="translate(36.674235, 11.674235) rotate(-360.000000) translate(-36.674235, -11.674235) "/>
                <path d="M116.598516,28.8091474 L113.370307,27.3927179 C113.05737,27.2554113 112.914992,26.8904161 113.052299,26.5774783 C113.160997,26.3297422 113.418033,26.1813428 113.686928,26.2110753 L117.190853,26.5985156 L118.607282,23.3703073 C118.744589,23.0573695 119.109584,22.9149923 119.422522,23.0522989 C119.670258,23.1609972 119.818657,23.4180326 119.788925,23.6869275 L119.401484,27.1908526 L122.629693,28.6072821 C122.94263,28.7445887 123.085008,29.1095839 122.947701,29.4225217 C122.839003,29.6702578 122.581967,29.8186572 122.313072,29.7889247 L118.809147,29.4014844 L117.392718,32.6296927 C117.255411,32.9426305 116.890416,33.0850077 116.577478,32.9477011 C116.329742,32.8390028 116.181343,32.5819674 116.211075,32.3130725 L116.598516,28.8091474 Z" id="Star-Copy-4" fill-opacity="0.506878397" fill="#FFEE1D"/>
                <path d="M145.598516,51.8091474 L142.370307,50.3927179 C142.05737,50.2554113 141.914992,49.8904161 142.052299,49.5774783 C142.160997,49.3297422 142.418033,49.1813428 142.686928,49.2110753 L146.190853,49.5985156 L147.607282,46.3703073 C147.744589,46.0573695 148.109584,45.9149923 148.422522,46.0522989 C148.670258,46.1609972 148.818657,46.4180326 148.788925,46.6869275 L148.401484,50.1908526 L151.629693,51.6072821 C151.94263,51.7445887 152.085008,52.1095839 151.947701,52.4225217 C151.839003,52.6702578 151.581967,52.8186572 151.313072,52.7889247 L147.809147,52.4014844 L146.392718,55.6296927 C146.255411,55.9426305 145.890416,56.0850077 145.577478,55.9477011 C145.329742,55.8390028 145.181343,55.5819674 145.211075,55.3130725 L145.598516,51.8091474 Z" id="Star-Copy-15" fill-opacity="0.525164176" fill="#FFFC31"/>
                <path d="M43.5985156,75.8091474 L40.3703073,74.3927179 C40.0573695,74.2554113 39.9149923,73.8904161 40.0522989,73.5774783 C40.1609972,73.3297422 40.4180326,73.1813428 40.6869275,73.2110753 L44.1908526,73.5985156 L45.6072821,70.3703073 C45.7445887,70.0573695 46.1095839,69.9149923 46.4225217,70.0522989 C46.6702578,70.1609972 46.8186572,70.4180326 46.7889247,70.6869275 L46.4014844,74.1908526 L49.6296927,75.6072821 C49.9426305,75.7445887 50.0850077,76.1095839 49.9477011,76.4225217 C49.8390028,76.6702578 49.5819674,76.8186572 49.3130725,76.7889247 L45.8091474,76.4014844 L44.3927179,79.6296927 C44.2554113,79.9426305 43.8904161,80.0850077 43.5774783,79.9477011 C43.3297422,79.8390028 43.1813428,79.5819674 43.2110753,79.3130725 L43.5985156,75.8091474 Z" id="Star-Copy-7" fill="#FFEE1D"/>
                <path d="M87.5985156,97.8091474 L84.3703073,96.3927179 C84.0573695,96.2554113 83.9149923,95.8904161 84.0522989,95.5774783 C84.1609972,95.3297422 84.4180326,95.1813428 84.6869275,95.2110753 L88.1908526,95.5985156 L89.6072821,92.3703073 C89.7445887,92.0573695 90.1095839,91.9149923 90.4225217,92.0522989 C90.6702578,92.1609972 90.8186572,92.4180326 90.7889247,92.6869275 L90.4014844,96.1908526 L93.6296927,97.6072821 C93.9426305,97.7445887 94.0850077,98.1095839 93.9477011,98.4225217 C93.8390028,98.6702578 93.5819674,98.8186572 93.3130725,98.7889247 L89.8091474,98.4014844 L88.3927179,101.629693 C88.2554113,101.94263 87.8904161,102.085008 87.5774783,101.947701 C87.3297422,101.839003 87.1813428,101.581967 87.2110753,101.313072 L87.5985156,97.8091474 Z" id="Star-Copy-16" fill-opacity="0.525164176" fill="#FFFC31"/>
                <path d="M33,49 C34.6568542,49 36,47.6568542 36,46 C36,44.3431458 34.6568542,43 33,43 C31.3431458,43 30,44.3431458 30,46 C30,47.6568542 31.3431458,49 33,49 Z M33,50 C30.790861,50 29,48.209139 29,46 C29,43.790861 30.790861,42 33,42 C35.209139,42 37,43.790861 37,46 C37,48.209139 35.209139,50 33,50 Z" id="Oval-2" fill-opacity="0.820595562" fill="#FFE71A" fill-rule="nonzero"/>
                <circle id="Oval-3" stroke="#F8E71C" cx="196" cy="31" r="2.5"/>
            </g>
        </g>
    </g>
</svg>