<svg xmlns="http://www.w3.org/2000/svg" xmlns:xlink="http://www.w3.org/1999/xlink" version="1.1" id="图层_1" x="0px" y="0px" viewBox="0 0 20 20" style="enable-background:new 0 0 20 20;" xml:space="preserve">
<style type="text/css">
	.st0{fill:#CB6C1B;}
</style>
<g id="XMLID_78_">
	<path id="XMLID_26_" class="st0" d="M10,2c0.3,0,0.6,0,0.9,0c4.1,0.4,7.1,3.9,7.1,8c0,4.4-3.6,8-8,8s-8-3.6-8-8S5.6,2,10,2 M10,1   c-5,0-9,4-9,9s4,9,9,9s9-4,9-9c0-4.6-3.5-8.5-8-8.9C10.7,1,10.3,1,10,1L10,1z"/>
</g>
<rect id="XMLID_132_" x="5" y="9.5" class="st0" width="10" height="1"/>
<rect id="XMLID_2_" x="9.5" y="5" class="st0" width="1" height="10"/>
</svg>